<?xml version="1.0" encoding="us-ascii" standalone="no"?><svg xmlns="http://www.w3.org/2000/svg" xmlns:xlink="http://www.w3.org/1999/xlink" contentStyleType="text/css" height="300px" preserveAspectRatio="none" style="width:336px;height:300px;background:#FFFFFF;" version="1.1" viewBox="0 0 336 300" width="336px" zoomAndPan="magnify"><defs/><g><text fill="#000000" font-family="sans-serif" font-size="14" font-weight="bold" lengthAdjust="spacing" textLength="308" x="10" y="22.6738">Class Diagram - Autom&#243;vel com propriet&#225;rio</text><!--class Automovel--><g id="elem_Automovel"><rect codeLine="5" fill="#F1F1F1" height="79.2813" id="Automovel" rx="2.5" ry="2.5" style="stroke:#181818;stroke-width:0.5;" width="158" x="92" y="43.6406"/><ellipse cx="134" cy="59.6406" fill="#ADD1B2" rx="11" ry="11" style="stroke:#181818;stroke-width:1.0;"/><path d="M136.7656,55.5156 Q136.9219,55.2969 137.1094,55.1875 Q137.2969,55.0781 137.5156,55.0781 Q137.8906,55.0781 138.125,55.3438 Q138.3594,55.5938 138.3594,56.2031 L138.3594,57.6563 Q138.3594,58.2656 138.125,58.5313 Q137.8906,58.7969 137.5156,58.7969 Q137.1719,58.7969 136.9688,58.5938 Q136.7656,58.4063 136.6563,57.8906 Q136.6094,57.5313 136.4219,57.3438 Q136.0938,56.9688 135.4844,56.75 Q134.875,56.5313 134.25,56.5313 Q133.4844,56.5313 132.8438,56.8594 Q132.2188,57.1875 131.7188,57.9375 Q131.2344,58.6875 131.2344,59.7188 L131.2344,60.8125 Q131.2344,62.0469 132.125,62.875 Q133.0156,63.6875 134.6094,63.6875 Q135.5469,63.6875 136.2031,63.4375 Q136.5938,63.2813 137.0156,62.8438 Q137.2813,62.5781 137.4219,62.5 Q137.5781,62.4219 137.7813,62.4219 Q138.1094,62.4219 138.3594,62.6875 Q138.625,62.9375 138.625,63.2813 Q138.625,63.625 138.2813,64.0313 Q137.7813,64.6094 136.9844,64.9375 Q135.9063,65.3906 134.6094,65.3906 Q133.0938,65.3906 131.8906,64.7656 Q130.9063,64.2656 130.2188,63.2031 Q129.5313,62.125 129.5313,60.8438 L129.5313,59.6875 Q129.5313,58.3594 130.1406,57.2188 Q130.7656,56.0625 131.8594,55.4531 Q132.9531,54.8281 134.1875,54.8281 Q134.9219,54.8281 135.5625,55 Q136.2188,55.1563 136.7656,55.5156 Z " fill="#000000"/><text fill="#000000" font-family="sans-serif" font-size="14" lengthAdjust="spacing" textLength="66" x="154" y="64.4941">Automovel</text><line style="stroke:#181818;stroke-width:0.5;" x1="93" x2="249" y1="75.6406" y2="75.6406"/><rect fill="none" height="6" style="stroke:#C82930;stroke-width:1.0;" width="6" x="100" y="85.9609"/><text fill="#000000" font-family="sans-serif" font-size="14" lengthAdjust="spacing" textLength="88" x="112" y="92.3145">marca : String</text><rect fill="none" height="6" style="stroke:#C82930;stroke-width:1.0;" width="6" x="100" y="101.6016"/><text fill="#000000" font-family="sans-serif" font-size="14" lengthAdjust="spacing" textLength="132" x="112" y="107.9551">propriet&#225;rio : Pessoa</text><line style="stroke:#181818;stroke-width:0.5;" x1="93" x2="249" y1="114.9219" y2="114.9219"/></g><!--class Pessoa--><g id="elem_Pessoa"><rect codeLine="10" fill="#F1F1F1" height="94.9219" id="Pessoa" rx="2.5" ry="2.5" style="stroke:#181818;stroke-width:0.5;" width="198" x="72" y="198.6406"/><ellipse cx="143.25" cy="214.6406" fill="#ADD1B2" rx="11" ry="11" style="stroke:#181818;stroke-width:1.0;"/><path d="M146.0156,210.5156 Q146.1719,210.2969 146.3594,210.1875 Q146.5469,210.0781 146.7656,210.0781 Q147.1406,210.0781 147.375,210.3438 Q147.6094,210.5938 147.6094,211.2031 L147.6094,212.6563 Q147.6094,213.2656 147.375,213.5313 Q147.1406,213.7969 146.7656,213.7969 Q146.4219,213.7969 146.2188,213.5938 Q146.0156,213.4063 145.9063,212.8906 Q145.8594,212.5313 145.6719,212.3438 Q145.3438,211.9688 144.7344,211.75 Q144.125,211.5313 143.5,211.5313 Q142.7344,211.5313 142.0938,211.8594 Q141.4688,212.1875 140.9688,212.9375 Q140.4844,213.6875 140.4844,214.7188 L140.4844,215.8125 Q140.4844,217.0469 141.375,217.875 Q142.2656,218.6875 143.8594,218.6875 Q144.7969,218.6875 145.4531,218.4375 Q145.8438,218.2813 146.2656,217.8438 Q146.5313,217.5781 146.6719,217.5 Q146.8281,217.4219 147.0313,217.4219 Q147.3594,217.4219 147.6094,217.6875 Q147.875,217.9375 147.875,218.2813 Q147.875,218.625 147.5313,219.0313 Q147.0313,219.6094 146.2344,219.9375 Q145.1563,220.3906 143.8594,220.3906 Q142.3438,220.3906 141.1406,219.7656 Q140.1563,219.2656 139.4688,218.2031 Q138.7813,217.125 138.7813,215.8438 L138.7813,214.6875 Q138.7813,213.3594 139.3906,212.2188 Q140.0156,211.0625 141.1094,210.4531 Q142.2031,209.8281 143.4375,209.8281 Q144.1719,209.8281 144.8125,210 Q145.4688,210.1563 146.0156,210.5156 Z " fill="#000000"/><text fill="#000000" font-family="sans-serif" font-size="14" lengthAdjust="spacing" textLength="47" x="163.75" y="219.4941">Pessoa</text><line style="stroke:#181818;stroke-width:0.5;" x1="73" x2="269" y1="230.6406" y2="230.6406"/><rect fill="none" height="6" style="stroke:#C82930;stroke-width:1.0;" width="6" x="80" y="240.9609"/><text fill="#000000" font-family="sans-serif" font-size="14" lengthAdjust="spacing" textLength="84" x="92" y="247.3145">nome : String</text><rect fill="none" height="6" style="stroke:#C82930;stroke-width:1.0;" width="6" x="80" y="256.6016"/><text fill="#000000" font-family="sans-serif" font-size="14" lengthAdjust="spacing" textLength="64" x="92" y="262.9551">idCivil : int</text><line style="stroke:#181818;stroke-width:0.5;" x1="73" x2="269" y1="269.9219" y2="269.9219"/><ellipse cx="83" cy="283.2422" fill="#84BE84" rx="3" ry="3" style="stroke:#038048;stroke-width:1.0;"/><text fill="#000000" font-family="sans-serif" font-size="14" lengthAdjust="spacing" textLength="172" x="92" y="286.5957">equals(Object outroObjeto)</text></g><!--link Automovel to Pessoa--><g id="link_Automovel_Pessoa"><path codeLine="16" d="M171,122.7006 C171,143.8906 171,170.4606 171,193.4306 " fill="none" id="Automovel-to-Pessoa" style="stroke:#181818;stroke-width:1.0;"/><polygon fill="#181818" points="171,198.5706,175,189.5706,171,193.5706,167,189.5706,171,198.5706" style="stroke:#181818;stroke-width:1.0;"/><text fill="#000000" font-family="sans-serif" font-size="13" lengthAdjust="spacing" textLength="30" x="172" y="165.4092">owns</text><text fill="#000000" font-family="sans-serif" font-size="13" lengthAdjust="spacing" textLength="20" x="149.4688" y="188.0292">1..*</text></g><!--SRC=[LOuz3i8m34RtdCBgmf_IYhK34YexI721q4PWbCGbSSk0E0ndu0Yz62a519lz-NjF7XsPwv1dMMsKuyQQj2IRbKQ582jK1w-i43jaew7eGrWD8KXODaosUxJQG6IWzbHxrDpTFP8GByNGeLYv2WbM-L913blsw0un-4FYOQD382Lk7thOUzIHrRyaLWMsQ6A4ZiKCzBbH9epN-vCk6QXXJ_tCDEbjtoy0f5n0Ca_JQVAsHmLTN11F]--></g></svg>