<?xml version="1.0" encoding="us-ascii" standalone="no"?><svg xmlns="http://www.w3.org/2000/svg" xmlns:xlink="http://www.w3.org/1999/xlink" contentStyleType="text/css" height="232px" preserveAspectRatio="none" style="width:437px;height:232px;background:#FFFFFF;" version="1.1" viewBox="0 0 437 232" width="437px" zoomAndPan="magnify"><defs/><g><!--class Figura--><g id="elem_Figura"><rect codeLine="3" fill="#F1F1F1" height="63.6406" id="Figura" rx="2.5" ry="2.5" style="stroke:#181818;stroke-width:0.5;" width="87" x="202" y="162"/><ellipse cx="223.3" cy="178" fill="#ADD1B2" rx="11" ry="11" style="stroke:#181818;stroke-width:1.0;"/><path d="M226.0656,173.875 Q226.2219,173.6563 226.4094,173.5469 Q226.5969,173.4375 226.8156,173.4375 Q227.1906,173.4375 227.425,173.7031 Q227.6594,173.9531 227.6594,174.5625 L227.6594,176.0156 Q227.6594,176.625 227.425,176.8906 Q227.1906,177.1563 226.8156,177.1563 Q226.4719,177.1563 226.2688,176.9531 Q226.0656,176.7656 225.9563,176.25 Q225.9094,175.8906 225.7219,175.7031 Q225.3938,175.3281 224.7844,175.1094 Q224.175,174.8906 223.55,174.8906 Q222.7844,174.8906 222.1438,175.2188 Q221.5188,175.5469 221.0188,176.2969 Q220.5344,177.0469 220.5344,178.0781 L220.5344,179.1719 Q220.5344,180.4063 221.425,181.2344 Q222.3156,182.0469 223.9094,182.0469 Q224.8469,182.0469 225.5031,181.7969 Q225.8938,181.6406 226.3156,181.2031 Q226.5813,180.9375 226.7219,180.8594 Q226.8781,180.7813 227.0813,180.7813 Q227.4094,180.7813 227.6594,181.0469 Q227.925,181.2969 227.925,181.6406 Q227.925,181.9844 227.5813,182.3906 Q227.0813,182.9688 226.2844,183.2969 Q225.2063,183.75 223.9094,183.75 Q222.3938,183.75 221.1906,183.125 Q220.2063,182.625 219.5188,181.5625 Q218.8313,180.4844 218.8313,179.2031 L218.8313,178.0469 Q218.8313,176.7188 219.4406,175.5781 Q220.0656,174.4219 221.1594,173.8125 Q222.2531,173.1875 223.4875,173.1875 Q224.2219,173.1875 224.8625,173.3594 Q225.5188,173.5156 226.0656,173.875 Z " fill="#000000"/><text fill="#000000" font-family="sans-serif" font-size="14" lengthAdjust="spacing" textLength="41" x="238.7" y="182.8535">Figura</text><line style="stroke:#181818;stroke-width:0.5;" x1="203" x2="288" y1="194" y2="194"/><rect fill="none" height="6" style="stroke:#C82930;stroke-width:1.0;" width="6" x="210" y="204.3203"/><text fill="#000000" font-family="sans-serif" font-size="14" lengthAdjust="spacing" textLength="61" x="222" y="210.6738">String cor</text><line style="stroke:#181818;stroke-width:0.5;" x1="203" x2="288" y1="217.6406" y2="217.6406"/></g><!--class Ret?ngulo--><g id="elem_Ret&#226;ngulo"><rect codeLine="7" fill="#F1F1F1" height="94.9219" id="Ret&#226;ngulo" rx="2.5" ry="2.5" style="stroke:#181818;stroke-width:0.5;" width="249" x="7" y="7"/><ellipse cx="94.75" cy="23" fill="#ADD1B2" rx="11" ry="11" style="stroke:#181818;stroke-width:1.0;"/><path d="M97.5156,18.875 Q97.6719,18.6563 97.8594,18.5469 Q98.0469,18.4375 98.2656,18.4375 Q98.6406,18.4375 98.875,18.7031 Q99.1094,18.9531 99.1094,19.5625 L99.1094,21.0156 Q99.1094,21.625 98.875,21.8906 Q98.6406,22.1563 98.2656,22.1563 Q97.9219,22.1563 97.7188,21.9531 Q97.5156,21.7656 97.4063,21.25 Q97.3594,20.8906 97.1719,20.7031 Q96.8438,20.3281 96.2344,20.1094 Q95.625,19.8906 95,19.8906 Q94.2344,19.8906 93.5938,20.2188 Q92.9688,20.5469 92.4688,21.2969 Q91.9844,22.0469 91.9844,23.0781 L91.9844,24.1719 Q91.9844,25.4063 92.875,26.2344 Q93.7656,27.0469 95.3594,27.0469 Q96.2969,27.0469 96.9531,26.7969 Q97.3438,26.6406 97.7656,26.2031 Q98.0313,25.9375 98.1719,25.8594 Q98.3281,25.7813 98.5313,25.7813 Q98.8594,25.7813 99.1094,26.0469 Q99.375,26.2969 99.375,26.6406 Q99.375,26.9844 99.0313,27.3906 Q98.5313,27.9688 97.7344,28.2969 Q96.6563,28.75 95.3594,28.75 Q93.8438,28.75 92.6406,28.125 Q91.6563,27.625 90.9688,26.5625 Q90.2813,25.4844 90.2813,24.2031 L90.2813,23.0469 Q90.2813,21.7188 90.8906,20.5781 Q91.5156,19.4219 92.6094,18.8125 Q93.7031,18.1875 94.9375,18.1875 Q95.6719,18.1875 96.3125,18.3594 Q96.9688,18.5156 97.5156,18.875 Z " fill="#000000"/><text fill="#000000" font-family="sans-serif" font-size="14" lengthAdjust="spacing" textLength="65" x="115.25" y="27.8535">Ret&#226;ngulo</text><line style="stroke:#181818;stroke-width:0.5;" x1="8" x2="255" y1="39" y2="39"/><rect fill="none" height="6" style="stroke:#C82930;stroke-width:1.0;" width="6" x="15" y="49.3203"/><text fill="#000000" font-family="sans-serif" font-size="14" lengthAdjust="spacing" textLength="128" x="27" y="55.6738">double comprimento</text><rect fill="none" height="6" style="stroke:#C82930;stroke-width:1.0;" width="6" x="15" y="64.9609"/><text fill="#000000" font-family="sans-serif" font-size="14" lengthAdjust="spacing" textLength="92" x="27" y="71.3145">double largura</text><line style="stroke:#181818;stroke-width:0.5;" x1="8" x2="255" y1="78.2813" y2="78.2813"/><ellipse cx="18" cy="91.6016" fill="#84BE84" rx="3" ry="3" style="stroke:#038048;stroke-width:1.0;"/><text fill="#000000" font-family="sans-serif" font-size="14" lengthAdjust="spacing" textLength="223" x="27" y="94.9551">calcularArea(largura, comprimento)</text></g><!--class C?rculo--><g id="elem_C&#237;rculo"><rect codeLine="13" fill="#F1F1F1" height="79.2813" id="C&#237;rculo" rx="2.5" ry="2.5" style="stroke:#181818;stroke-width:0.5;" width="139" x="291" y="15"/><ellipse cx="334.35" cy="31" fill="#ADD1B2" rx="11" ry="11" style="stroke:#181818;stroke-width:1.0;"/><path d="M337.1156,26.875 Q337.2719,26.6563 337.4594,26.5469 Q337.6469,26.4375 337.8656,26.4375 Q338.2406,26.4375 338.475,26.7031 Q338.7094,26.9531 338.7094,27.5625 L338.7094,29.0156 Q338.7094,29.625 338.475,29.8906 Q338.2406,30.1563 337.8656,30.1563 Q337.5219,30.1563 337.3188,29.9531 Q337.1156,29.7656 337.0063,29.25 Q336.9594,28.8906 336.7719,28.7031 Q336.4438,28.3281 335.8344,28.1094 Q335.225,27.8906 334.6,27.8906 Q333.8344,27.8906 333.1938,28.2188 Q332.5688,28.5469 332.0688,29.2969 Q331.5844,30.0469 331.5844,31.0781 L331.5844,32.1719 Q331.5844,33.4063 332.475,34.2344 Q333.3656,35.0469 334.9594,35.0469 Q335.8969,35.0469 336.5531,34.7969 Q336.9438,34.6406 337.3656,34.2031 Q337.6313,33.9375 337.7719,33.8594 Q337.9281,33.7813 338.1313,33.7813 Q338.4594,33.7813 338.7094,34.0469 Q338.975,34.2969 338.975,34.6406 Q338.975,34.9844 338.6313,35.3906 Q338.1313,35.9688 337.3344,36.2969 Q336.2563,36.75 334.9594,36.75 Q333.4438,36.75 332.2406,36.125 Q331.2563,35.625 330.5688,34.5625 Q329.8813,33.4844 329.8813,32.2031 L329.8813,31.0469 Q329.8813,29.7188 330.4906,28.5781 Q331.1156,27.4219 332.2094,26.8125 Q333.3031,26.1875 334.5375,26.1875 Q335.2719,26.1875 335.9125,26.3594 Q336.5688,26.5156 337.1156,26.875 Z " fill="#000000"/><text fill="#000000" font-family="sans-serif" font-size="14" lengthAdjust="spacing" textLength="44" x="354.65" y="35.8535">C&#237;rculo</text><line style="stroke:#181818;stroke-width:0.5;" x1="292" x2="429" y1="47" y2="47"/><rect fill="none" height="6" style="stroke:#C82930;stroke-width:1.0;" width="6" x="299" y="57.3203"/><text fill="#000000" font-family="sans-serif" font-size="14" lengthAdjust="spacing" textLength="71" x="311" y="63.6738">double raio</text><line style="stroke:#181818;stroke-width:0.5;" x1="292" x2="429" y1="70.6406" y2="70.6406"/><ellipse cx="302" cy="83.9609" fill="#84BE84" rx="3" ry="3" style="stroke:#038048;stroke-width:1.0;"/><text fill="#000000" font-family="sans-serif" font-size="14" lengthAdjust="spacing" textLength="113" x="311" y="87.3145">calcularArea(raio)</text></g><!--link C?rculo to Figura--><g id="link_C&#237;rculo_Figura"><path codeLine="18" d="M328.16,94.17 C314.67,110.3 298.87,129.18 284.73,146.1 " fill="none" id="C&#237;rculo-to-Figura" style="stroke:#181818;stroke-width:1.0;"/><polygon fill="none" points="290,150.71,271.8,161.56,279.26,141.73,290,150.71" style="stroke:#181818;stroke-width:1.0;"/></g><!--link Ret?ngulo to Figura--><g id="link_Ret&#226;ngulo_Figura"><path codeLine="19" d="M170.1,102.05 C181.79,116.16 194.65,131.67 206.39,145.82 " fill="none" id="Ret&#226;ngulo-to-Figura" style="stroke:#181818;stroke-width:1.0;"/><polygon fill="none" points="212.13,141.78,219.51,161.65,201.35,150.72,212.13,141.78" style="stroke:#181818;stroke-width:1.0;"/></g><!--SRC=[POyx3i8m38Ptdy8R80ZT6P1G9Gu09p1f528vIUKc4t0PTaxHYz52KGkC_lm_xDavfRhP54ND55BslDRH5vgfQLJbo0fvWB8VSUzi5he0AZmcSS6YZWAtp_fWKdiFDdDyIQgOJsmwYQ_5UHDId50cwRC0bwY9TUxcdHYQ3tmrjIt6Yh9zYFuf47BnBwU7Rz_WGAMks-4362_zml04]--></g></svg>