<?xml version="1.0" encoding="us-ascii" standalone="no"?><svg xmlns="http://www.w3.org/2000/svg" xmlns:xlink="http://www.w3.org/1999/xlink" contentStyleType="text/css" height="332px" preserveAspectRatio="none" style="width:682px;height:332px;background:#FFFFFF;" version="1.1" viewBox="0 0 682 332" width="682px" zoomAndPan="magnify"><defs/><g><text fill="#000000" font-family="sans-serif" font-size="14" font-weight="bold" lengthAdjust="spacing" textLength="194" x="237.25" y="22.6738">Class Diagram - Contadores</text><!--class Contadores--><g id="elem_Contadores"><rect codeLine="5" fill="#F1F1F1" height="110.5625" id="Contadores" rx="2.5" ry="2.5" style="stroke:#181818;stroke-width:0.5;" width="182" x="212.5" y="43.6406"/><ellipse cx="262.25" cy="59.6406" fill="#A9DCDF" rx="11" ry="11" style="stroke:#181818;stroke-width:1.0;"/><path d="M264.4375,61.4063 L260.2969,61.4063 L259.875,62.4375 L260.2969,62.4375 Q260.9063,62.4375 261.1719,62.6719 Q261.4375,62.9063 261.4375,63.2969 Q261.4375,63.6719 261.1719,63.9063 Q260.9063,64.1406 260.2969,64.1406 L258,64.1406 Q257.3906,64.1406 257.1406,63.9063 Q256.875,63.6719 256.875,63.2813 Q256.875,62.9063 257.1563,62.6719 Q257.4219,62.4219 258.0469,62.4375 L260.7188,55.7813 L259.6094,55.7813 Q259,55.7813 258.7344,55.5469 Q258.4688,55.3125 258.4688,54.9219 Q258.4688,54.5469 258.7344,54.3125 Q259,54.0781 259.6094,54.0781 L263.2813,54.0781 L266.6719,62.4375 Q267.2656,62.4375 267.4531,62.5781 Q267.8438,62.8438 267.8438,63.2969 Q267.8438,63.6719 267.5781,63.9063 Q267.3281,64.1406 266.7188,64.1406 L264.4219,64.1406 Q263.8125,64.1406 263.5469,63.9063 Q263.2813,63.6719 263.2813,63.2813 Q263.2813,62.9063 263.5469,62.6719 Q263.8125,62.4375 264.4219,62.4375 L264.8438,62.4375 L264.4375,61.4063 Z M263.7188,59.7031 L262.3594,56.3281 L260.9844,59.7031 L263.7188,59.7031 Z " fill="#000000"/><text fill="#000000" font-family="sans-serif" font-size="14" font-style="italic" lengthAdjust="spacing" textLength="74" x="282.75" y="64.4941">Contadores</text><line style="stroke:#181818;stroke-width:0.5;" x1="213.5" x2="393.5" y1="75.6406" y2="75.6406"/><rect fill="none" height="6" style="stroke:#C82930;stroke-width:1.0;" width="6" x="220.5" y="85.9609"/><text fill="#000000" font-family="sans-serif" font-size="14" lengthAdjust="spacing" textLength="142" x="232.5" y="92.3145">int : consumoMesAtual</text><rect fill="none" height="6" style="stroke:#C82930;stroke-width:1.0;" width="6" x="220.5" y="101.6016"/><text fill="#000000" font-family="sans-serif" font-size="14" lengthAdjust="spacing" textLength="128" x="232.5" y="107.9551">String : identificacao</text><rect fill="none" height="6" style="stroke:#C82930;stroke-width:1.0;" width="6" x="220.5" y="117.2422"/><text fill="#000000" font-family="sans-serif" font-size="14" lengthAdjust="spacing" textLength="128" x="232.5" y="123.5957">String : nomeCliente</text><line style="stroke:#181818;stroke-width:0.5;" x1="213.5" x2="393.5" y1="130.5625" y2="130.5625"/><ellipse cx="223.5" cy="143.8828" fill="#84BE84" rx="3" ry="3" style="stroke:#038048;stroke-width:1.0;"/><text fill="#000000" font-family="sans-serif" font-size="14" lengthAdjust="spacing" textLength="156" x="232.5" y="147.2363">calcularCustoConsumo()</text></g><!--class Gas--><g id="elem_Gas"><rect codeLine="12" fill="#F1F1F1" height="63.6406" id="Gas" rx="2.5" ry="2.5" style="stroke:#181818;stroke-width:0.5;" width="155" x="7" y="238.1406"/><ellipse cx="67.25" cy="254.1406" fill="#ADD1B2" rx="11" ry="11" style="stroke:#181818;stroke-width:1.0;"/><path d="M70.0156,250.0156 Q70.1719,249.7969 70.3594,249.6875 Q70.5469,249.5781 70.7656,249.5781 Q71.1406,249.5781 71.375,249.8438 Q71.6094,250.0938 71.6094,250.7031 L71.6094,252.1563 Q71.6094,252.7656 71.375,253.0313 Q71.1406,253.2969 70.7656,253.2969 Q70.4219,253.2969 70.2188,253.0938 Q70.0156,252.9063 69.9063,252.3906 Q69.8594,252.0313 69.6719,251.8438 Q69.3438,251.4688 68.7344,251.25 Q68.125,251.0313 67.5,251.0313 Q66.7344,251.0313 66.0938,251.3594 Q65.4688,251.6875 64.9688,252.4375 Q64.4844,253.1875 64.4844,254.2188 L64.4844,255.3125 Q64.4844,256.5469 65.375,257.375 Q66.2656,258.1875 67.8594,258.1875 Q68.7969,258.1875 69.4531,257.9375 Q69.8438,257.7813 70.2656,257.3438 Q70.5313,257.0781 70.6719,257 Q70.8281,256.9219 71.0313,256.9219 Q71.3594,256.9219 71.6094,257.1875 Q71.875,257.4375 71.875,257.7813 Q71.875,258.125 71.5313,258.5313 Q71.0313,259.1094 70.2344,259.4375 Q69.1563,259.8906 67.8594,259.8906 Q66.3438,259.8906 65.1406,259.2656 Q64.1563,258.7656 63.4688,257.7031 Q62.7813,256.625 62.7813,255.3438 L62.7813,254.1875 Q62.7813,252.8594 63.3906,251.7188 Q64.0156,250.5625 65.1094,249.9531 Q66.2031,249.3281 67.4375,249.3281 Q68.1719,249.3281 68.8125,249.5 Q69.4688,249.6563 70.0156,250.0156 Z " fill="#000000"/><text fill="#000000" font-family="sans-serif" font-size="14" lengthAdjust="spacing" textLength="26" x="87.75" y="258.9941">Gas</text><line style="stroke:#181818;stroke-width:0.5;" x1="8" x2="161" y1="270.1406" y2="270.1406"/><rect fill="none" height="6" style="stroke:#C82930;stroke-width:1.0;" width="6" x="15" y="280.4609"/><text fill="#000000" font-family="sans-serif" font-size="14" lengthAdjust="spacing" textLength="129" x="27" y="286.8145">double custoUnitario</text><line style="stroke:#181818;stroke-width:0.5;" x1="8" x2="161" y1="293.7813" y2="293.7813"/></g><!--class EletricidadeTarifaSimples--><g id="elem_EletricidadeTarifaSimples"><rect codeLine="16" fill="#F1F1F1" height="94.9219" id="EletricidadeTarifaSimples" rx="2.5" ry="2.5" style="stroke:#181818;stroke-width:0.5;" width="213" x="197" y="222.6406"/><ellipse cx="221.45" cy="238.6406" fill="#ADD1B2" rx="11" ry="11" style="stroke:#181818;stroke-width:1.0;"/><path d="M224.2156,234.5156 Q224.3719,234.2969 224.5594,234.1875 Q224.7469,234.0781 224.9656,234.0781 Q225.3406,234.0781 225.575,234.3438 Q225.8094,234.5938 225.8094,235.2031 L225.8094,236.6563 Q225.8094,237.2656 225.575,237.5313 Q225.3406,237.7969 224.9656,237.7969 Q224.6219,237.7969 224.4188,237.5938 Q224.2156,237.4063 224.1063,236.8906 Q224.0594,236.5313 223.8719,236.3438 Q223.5438,235.9688 222.9344,235.75 Q222.325,235.5313 221.7,235.5313 Q220.9344,235.5313 220.2938,235.8594 Q219.6688,236.1875 219.1688,236.9375 Q218.6844,237.6875 218.6844,238.7188 L218.6844,239.8125 Q218.6844,241.0469 219.575,241.875 Q220.4656,242.6875 222.0594,242.6875 Q222.9969,242.6875 223.6531,242.4375 Q224.0438,242.2813 224.4656,241.8438 Q224.7313,241.5781 224.8719,241.5 Q225.0281,241.4219 225.2313,241.4219 Q225.5594,241.4219 225.8094,241.6875 Q226.075,241.9375 226.075,242.2813 Q226.075,242.625 225.7313,243.0313 Q225.2313,243.6094 224.4344,243.9375 Q223.3563,244.3906 222.0594,244.3906 Q220.5438,244.3906 219.3406,243.7656 Q218.3563,243.2656 217.6688,242.2031 Q216.9813,241.125 216.9813,239.8438 L216.9813,238.6875 Q216.9813,237.3594 217.5906,236.2188 Q218.2156,235.0625 219.3094,234.4531 Q220.4031,233.8281 221.6375,233.8281 Q222.3719,233.8281 223.0125,234 Q223.6688,234.1563 224.2156,234.5156 Z " fill="#000000"/><text fill="#000000" font-family="sans-serif" font-size="14" lengthAdjust="spacing" textLength="160" x="237.55" y="243.4941">EletricidadeTarifaSimples</text><line style="stroke:#181818;stroke-width:0.5;" x1="198" x2="409" y1="254.6406" y2="254.6406"/><rect fill="none" height="6" style="stroke:#C82930;stroke-width:1.0;" width="6" x="205" y="264.9609"/><text fill="#000000" font-family="sans-serif" font-size="14" lengthAdjust="spacing" textLength="180" x="217" y="271.3145">double : potenciaContratada</text><rect fill="none" height="6" style="stroke:#C82930;stroke-width:1.0;" width="6" x="205" y="280.6016"/><text fill="#000000" font-family="sans-serif" font-size="14" lengthAdjust="spacing" textLength="184" x="217" y="286.9551">double : precoMinimoPorKwH</text><rect fill="none" height="6" style="stroke:#C82930;stroke-width:1.0;" width="6" x="205" y="296.2422"/><text fill="#000000" font-family="sans-serif" font-size="14" lengthAdjust="spacing" textLength="187" x="217" y="302.5957">double : precoMaximoPorKwH</text><line style="stroke:#181818;stroke-width:0.5;" x1="198" x2="409" y1="309.5625" y2="309.5625"/></g><!--class EletricidadeTarifaBiHorario--><g id="elem_EletricidadeTarifaBiHorario"><rect codeLine="22" fill="#F1F1F1" height="110.5625" id="EletricidadeTarifaBiHorario" rx="2.5" ry="2.5" style="stroke:#181818;stroke-width:0.5;" width="230" x="445.5" y="214.6406"/><ellipse cx="473.55" cy="230.6406" fill="#ADD1B2" rx="11" ry="11" style="stroke:#181818;stroke-width:1.0;"/><path d="M476.3156,226.5156 Q476.4719,226.2969 476.6594,226.1875 Q476.8469,226.0781 477.0656,226.0781 Q477.4406,226.0781 477.675,226.3438 Q477.9094,226.5938 477.9094,227.2031 L477.9094,228.6563 Q477.9094,229.2656 477.675,229.5313 Q477.4406,229.7969 477.0656,229.7969 Q476.7219,229.7969 476.5188,229.5938 Q476.3156,229.4063 476.2063,228.8906 Q476.1594,228.5313 475.9719,228.3438 Q475.6438,227.9688 475.0344,227.75 Q474.425,227.5313 473.8,227.5313 Q473.0344,227.5313 472.3938,227.8594 Q471.7688,228.1875 471.2688,228.9375 Q470.7844,229.6875 470.7844,230.7188 L470.7844,231.8125 Q470.7844,233.0469 471.675,233.875 Q472.5656,234.6875 474.1594,234.6875 Q475.0969,234.6875 475.7531,234.4375 Q476.1438,234.2813 476.5656,233.8438 Q476.8313,233.5781 476.9719,233.5 Q477.1281,233.4219 477.3313,233.4219 Q477.6594,233.4219 477.9094,233.6875 Q478.175,233.9375 478.175,234.2813 Q478.175,234.625 477.8313,235.0313 Q477.3313,235.6094 476.5344,235.9375 Q475.4563,236.3906 474.1594,236.3906 Q472.6438,236.3906 471.4406,235.7656 Q470.4563,235.2656 469.7688,234.2031 Q469.0813,233.125 469.0813,231.8438 L469.0813,230.6875 Q469.0813,229.3594 469.6906,228.2188 Q470.3156,227.0625 471.4094,226.4531 Q472.5031,225.8281 473.7375,225.8281 Q474.4719,225.8281 475.1125,226 Q475.7688,226.1563 476.3156,226.5156 Z " fill="#000000"/><text fill="#000000" font-family="sans-serif" font-size="14" lengthAdjust="spacing" textLength="169" x="490.45" y="235.4941">EletricidadeTarifaBiHorario</text><line style="stroke:#181818;stroke-width:0.5;" x1="446.5" x2="674.5" y1="246.6406" y2="246.6406"/><rect fill="none" height="6" style="stroke:#C82930;stroke-width:1.0;" width="6" x="453.5" y="256.9609"/><text fill="#000000" font-family="sans-serif" font-size="14" lengthAdjust="spacing" textLength="115" x="465.5" y="263.3145">int : horasDeVazio</text><rect fill="none" height="6" style="stroke:#C82930;stroke-width:1.0;" width="6" x="453.5" y="272.6016"/><text fill="#000000" font-family="sans-serif" font-size="14" lengthAdjust="spacing" textLength="127" x="465.5" y="278.9551">int : horasForaVazio</text><rect fill="none" height="6" style="stroke:#C82930;stroke-width:1.0;" width="6" x="453.5" y="288.2422"/><text fill="#000000" font-family="sans-serif" font-size="14" lengthAdjust="spacing" textLength="174" x="465.5" y="294.5957">double : tarifarioHorasVazio</text><rect fill="none" height="6" style="stroke:#C82930;stroke-width:1.0;" width="6" x="453.5" y="303.8828"/><text fill="#000000" font-family="sans-serif" font-size="14" lengthAdjust="spacing" textLength="204" x="465.5" y="310.2363">double : tarifarioHorasForaVazio</text><line style="stroke:#181818;stroke-width:0.5;" x1="446.5" x2="674.5" y1="317.2031" y2="317.2031"/></g><!--reverse link Contadores to Gas--><g id="link_Contadores_Gas"><path codeLine="29" d="M216.86,167.0006 C185.05,191.5506 150.55,218.1706 124.74,238.0906 " fill="none" id="Contadores-backto-Gas" style="stroke:#181818;stroke-width:1.0;"/><polygon fill="none" points="212.59,161.4506,232.7,154.7806,221.14,172.5406,212.59,161.4506" style="stroke:#181818;stroke-width:1.0;"/></g><!--reverse link Contadores to EletricidadeTarifaSimples--><g id="link_Contadores_EletricidadeTarifaSimples"><path codeLine="30" d="M303.5,175.0206 C303.5,191.1706 303.5,207.7906 303.5,222.4806 " fill="none" id="Contadores-backto-EletricidadeTarifaSimples" style="stroke:#181818;stroke-width:1.0;"/><polygon fill="none" points="296.5,175.0106,303.5,155.0106,310.5,175.0106,296.5,175.0106" style="stroke:#181818;stroke-width:1.0;"/></g><!--reverse link Contadores to EletricidadeTarifaBiHorario--><g id="link_Contadores_EletricidadeTarifaBiHorario"><path codeLine="31" d="M403.6,165.9606 C427.97,181.9906 453.77,198.9606 477.26,214.4006 " fill="none" id="Contadores-backto-EletricidadeTarifaBiHorario" style="stroke:#181818;stroke-width:1.0;"/><polygon fill="none" points="399.45,171.6106,386.59,154.7806,407.14,159.9206,399.45,171.6106" style="stroke:#181818;stroke-width:1.0;"/></g><!--SRC=[ZP5FJyCm3CNl-HIv0KAbzueBTC0aD0bfWxkNP9kb9AuIHo3-V7UILgoT9c2N7DxFVizspdRCNMpgkhFWEJbxfSZLoaACbKRO1d12h92jaMqHvMmGPILRyWoQWeb2m3fo0CMoxvoW3r59z2mRgSZ7v6XXuWqdi5bVSa2_pGYryOmRLA20fi2JCwt5J8sub0giIXP2co9JEzYTNuWl8ORK1-ZZDALr7bULgcUF305fBBgp9hihrA3DAgCDBD5rranR6zaH6wyGoY81yYvmG8DHj42FZfueFBxEZo6yZV2Fx5kSKoW3ZdVQPI7Ep0ky8nsAz_dvaVTntFjaXs8K_y6ZGvvf_2Hv_LbLvNn7sg_NEg5olvlu1W00]--></g></svg>