<?xml version="1.0" encoding="us-ascii" standalone="no"?><svg xmlns="http://www.w3.org/2000/svg" xmlns:xlink="http://www.w3.org/1999/xlink" contentStyleType="text/css" height="332px" preserveAspectRatio="none" style="width:587px;height:332px;background:#FFFFFF;" version="1.1" viewBox="0 0 587 332" width="587px" zoomAndPan="magnify"><defs/><g><text fill="#000000" font-family="sans-serif" font-size="14" font-weight="bold" lengthAdjust="spacing" textLength="194" x="189.75" y="22.6738">Class Diagram Vencimentos</text><!--class Trabalhador--><g id="elem_Trabalhador"><rect codeLine="5" fill="#F1F1F1" height="110.5625" id="Trabalhador" rx="2.5" ry="2.5" style="stroke:#181818;stroke-width:0.5;" width="159" x="220.5" y="214.6406"/><ellipse cx="257.55" cy="230.6406" fill="#A9DCDF" rx="11" ry="11" style="stroke:#181818;stroke-width:1.0;"/><path d="M259.7375,232.4063 L255.5969,232.4063 L255.175,233.4375 L255.5969,233.4375 Q256.2063,233.4375 256.4719,233.6719 Q256.7375,233.9063 256.7375,234.2969 Q256.7375,234.6719 256.4719,234.9063 Q256.2063,235.1406 255.5969,235.1406 L253.3,235.1406 Q252.6906,235.1406 252.4406,234.9063 Q252.175,234.6719 252.175,234.2813 Q252.175,233.9063 252.4563,233.6719 Q252.7219,233.4219 253.3469,233.4375 L256.0188,226.7813 L254.9094,226.7813 Q254.3,226.7813 254.0344,226.5469 Q253.7688,226.3125 253.7688,225.9219 Q253.7688,225.5469 254.0344,225.3125 Q254.3,225.0781 254.9094,225.0781 L258.5813,225.0781 L261.9719,233.4375 Q262.5656,233.4375 262.7531,233.5781 Q263.1438,233.8438 263.1438,234.2969 Q263.1438,234.6719 262.8781,234.9063 Q262.6281,235.1406 262.0188,235.1406 L259.7219,235.1406 Q259.1125,235.1406 258.8469,234.9063 Q258.5813,234.6719 258.5813,234.2813 Q258.5813,233.9063 258.8469,233.6719 Q259.1125,233.4375 259.7219,233.4375 L260.1438,233.4375 L259.7375,232.4063 Z M259.0188,230.7031 L257.6594,227.3281 L256.2844,230.7031 L259.0188,230.7031 Z " fill="#000000"/><text fill="#000000" font-family="sans-serif" font-size="14" font-style="italic" lengthAdjust="spacing" textLength="78" x="276.45" y="235.4941">Trabalhador</text><line style="stroke:#181818;stroke-width:0.5;" x1="221.5" x2="378.5" y1="246.6406" y2="246.6406"/><rect fill="none" height="6" style="stroke:#C82930;stroke-width:1.0;" width="6" x="228.5" y="256.9609"/><text fill="#000000" font-family="sans-serif" font-size="14" lengthAdjust="spacing" textLength="80" x="240.5" y="263.3145">String: nome</text><line style="stroke:#181818;stroke-width:0.5;" x1="221.5" x2="378.5" y1="270.2813" y2="270.2813"/><ellipse cx="231.5" cy="283.6016" fill="#84BE84" rx="3" ry="3" style="stroke:#038048;stroke-width:1.0;"/><text fill="#000000" font-family="sans-serif" font-size="14" lengthAdjust="spacing" textLength="66" x="240.5" y="286.9551">getNome()</text><ellipse cx="231.5" cy="299.2422" fill="#84BE84" rx="3" ry="3" style="stroke:#038048;stroke-width:1.0;"/><text fill="#000000" font-family="sans-serif" font-size="14" lengthAdjust="spacing" textLength="65" x="240.5" y="302.5957">setNome()</text><ellipse cx="231.5" cy="314.8828" fill="#84BE84" rx="3" ry="3" style="stroke:#038048;stroke-width:1.0;"/><text fill="#000000" font-family="sans-serif" font-size="14" lengthAdjust="spacing" textLength="133" x="240.5" y="318.2363">calcularVencimento()</text></g><!--class TrabalhadorPe?a--><g id="elem_TrabalhadorPe&#231;a"><rect codeLine="12" fill="#F1F1F1" height="94.9219" id="TrabalhadorPe&#231;a" rx="2.5" ry="2.5" style="stroke:#181818;stroke-width:0.5;" width="172" x="7" y="51.6406"/><ellipse cx="35.5" cy="67.6406" fill="#ADD1B2" rx="11" ry="11" style="stroke:#181818;stroke-width:1.0;"/><path d="M38.2656,63.5156 Q38.4219,63.2969 38.6094,63.1875 Q38.7969,63.0781 39.0156,63.0781 Q39.3906,63.0781 39.625,63.3438 Q39.8594,63.5938 39.8594,64.2031 L39.8594,65.6563 Q39.8594,66.2656 39.625,66.5313 Q39.3906,66.7969 39.0156,66.7969 Q38.6719,66.7969 38.4688,66.5938 Q38.2656,66.4063 38.1563,65.8906 Q38.1094,65.5313 37.9219,65.3438 Q37.5938,64.9688 36.9844,64.75 Q36.375,64.5313 35.75,64.5313 Q34.9844,64.5313 34.3438,64.8594 Q33.7188,65.1875 33.2188,65.9375 Q32.7344,66.6875 32.7344,67.7188 L32.7344,68.8125 Q32.7344,70.0469 33.625,70.875 Q34.5156,71.6875 36.1094,71.6875 Q37.0469,71.6875 37.7031,71.4375 Q38.0938,71.2813 38.5156,70.8438 Q38.7813,70.5781 38.9219,70.5 Q39.0781,70.4219 39.2813,70.4219 Q39.6094,70.4219 39.8594,70.6875 Q40.125,70.9375 40.125,71.2813 Q40.125,71.625 39.7813,72.0313 Q39.2813,72.6094 38.4844,72.9375 Q37.4063,73.3906 36.1094,73.3906 Q34.5938,73.3906 33.3906,72.7656 Q32.4063,72.2656 31.7188,71.2031 Q31.0313,70.125 31.0313,68.8438 L31.0313,67.6875 Q31.0313,66.3594 31.6406,65.2188 Q32.2656,64.0625 33.3594,63.4531 Q34.4531,62.8281 35.6875,62.8281 Q36.4219,62.8281 37.0625,63 Q37.7188,63.1563 38.2656,63.5156 Z " fill="#000000"/><text fill="#000000" font-family="sans-serif" font-size="14" lengthAdjust="spacing" textLength="110" x="52.5" y="72.4941">TrabalhadorPe&#231;a</text><line style="stroke:#181818;stroke-width:0.5;" x1="8" x2="178" y1="83.6406" y2="83.6406"/><rect fill="none" height="6" style="stroke:#C82930;stroke-width:1.0;" width="6" x="15" y="93.9609"/><text fill="#000000" font-family="sans-serif" font-size="14" lengthAdjust="spacing" textLength="146" x="27" y="100.3145">int: numeroPecasTipo1</text><rect fill="none" height="6" style="stroke:#C82930;stroke-width:1.0;" width="6" x="15" y="109.6016"/><text fill="#000000" font-family="sans-serif" font-size="14" lengthAdjust="spacing" textLength="146" x="27" y="115.9551">int: numeroPecasTipo2</text><line style="stroke:#181818;stroke-width:0.5;" x1="8" x2="178" y1="122.9219" y2="122.9219"/><ellipse cx="18" cy="136.2422" fill="#84BE84" rx="3" ry="3" style="stroke:#038048;stroke-width:1.0;"/><text fill="#000000" font-family="sans-serif" font-size="14" lengthAdjust="spacing" textLength="133" x="27" y="139.5957">calcularVnecimento()</text></g><!--class TrabalhadorComissao--><g id="elem_TrabalhadorComissao"><rect codeLine="18" fill="#F1F1F1" height="110.5625" id="TrabalhadorComissao" rx="2.5" ry="2.5" style="stroke:#181818;stroke-width:0.5;" width="172" x="214" y="43.6406"/><ellipse cx="229" cy="59.6406" fill="#ADD1B2" rx="11" ry="11" style="stroke:#181818;stroke-width:1.0;"/><path d="M231.7656,55.5156 Q231.9219,55.2969 232.1094,55.1875 Q232.2969,55.0781 232.5156,55.0781 Q232.8906,55.0781 233.125,55.3438 Q233.3594,55.5938 233.3594,56.2031 L233.3594,57.6563 Q233.3594,58.2656 233.125,58.5313 Q232.8906,58.7969 232.5156,58.7969 Q232.1719,58.7969 231.9688,58.5938 Q231.7656,58.4063 231.6563,57.8906 Q231.6094,57.5313 231.4219,57.3438 Q231.0938,56.9688 230.4844,56.75 Q229.875,56.5313 229.25,56.5313 Q228.4844,56.5313 227.8438,56.8594 Q227.2188,57.1875 226.7188,57.9375 Q226.2344,58.6875 226.2344,59.7188 L226.2344,60.8125 Q226.2344,62.0469 227.125,62.875 Q228.0156,63.6875 229.6094,63.6875 Q230.5469,63.6875 231.2031,63.4375 Q231.5938,63.2813 232.0156,62.8438 Q232.2813,62.5781 232.4219,62.5 Q232.5781,62.4219 232.7813,62.4219 Q233.1094,62.4219 233.3594,62.6875 Q233.625,62.9375 233.625,63.2813 Q233.625,63.625 233.2813,64.0313 Q232.7813,64.6094 231.9844,64.9375 Q230.9063,65.3906 229.6094,65.3906 Q228.0938,65.3906 226.8906,64.7656 Q225.9063,64.2656 225.2188,63.2031 Q224.5313,62.125 224.5313,60.8438 L224.5313,59.6875 Q224.5313,58.3594 225.1406,57.2188 Q225.7656,56.0625 226.8594,55.4531 Q227.9531,54.8281 229.1875,54.8281 Q229.9219,54.8281 230.5625,55 Q231.2188,55.1563 231.7656,55.5156 Z " fill="#000000"/><text fill="#000000" font-family="sans-serif" font-size="14" lengthAdjust="spacing" textLength="140" x="243" y="64.4941">TrabalhadorComissao</text><line style="stroke:#181818;stroke-width:0.5;" x1="215" x2="385" y1="75.6406" y2="75.6406"/><rect fill="none" height="6" style="stroke:#C82930;stroke-width:1.0;" width="6" x="222" y="85.9609"/><text fill="#000000" font-family="sans-serif" font-size="14" lengthAdjust="spacing" textLength="109" x="234" y="92.3145">float: salarioBase</text><rect fill="none" height="6" style="stroke:#C82930;stroke-width:1.0;" width="6" x="222" y="101.6016"/><text fill="#000000" font-family="sans-serif" font-size="14" lengthAdjust="spacing" textLength="81" x="234" y="107.9551">float: vendas</text><rect fill="none" height="6" style="stroke:#C82930;stroke-width:1.0;" width="6" x="222" y="117.2422"/><text fill="#000000" font-family="sans-serif" font-size="14" lengthAdjust="spacing" textLength="94" x="234" y="123.5957">float: comissao</text><line style="stroke:#181818;stroke-width:0.5;" x1="215" x2="385" y1="130.5625" y2="130.5625"/><ellipse cx="225" cy="143.8828" fill="#84BE84" rx="3" ry="3" style="stroke:#038048;stroke-width:1.0;"/><text fill="#000000" font-family="sans-serif" font-size="14" lengthAdjust="spacing" textLength="133" x="234" y="147.2363">calcularVencimento()</text></g><!--class TrabalhadorHora--><g id="elem_TrabalhadorHora"><rect codeLine="25" fill="#F1F1F1" height="94.9219" id="TrabalhadorHora" rx="2.5" ry="2.5" style="stroke:#181818;stroke-width:0.5;" width="159" x="421.5" y="51.6406"/><ellipse cx="445.05" cy="67.6406" fill="#ADD1B2" rx="11" ry="11" style="stroke:#181818;stroke-width:1.0;"/><path d="M447.8156,63.5156 Q447.9719,63.2969 448.1594,63.1875 Q448.3469,63.0781 448.5656,63.0781 Q448.9406,63.0781 449.175,63.3438 Q449.4094,63.5938 449.4094,64.2031 L449.4094,65.6563 Q449.4094,66.2656 449.175,66.5313 Q448.9406,66.7969 448.5656,66.7969 Q448.2219,66.7969 448.0188,66.5938 Q447.8156,66.4063 447.7063,65.8906 Q447.6594,65.5313 447.4719,65.3438 Q447.1438,64.9688 446.5344,64.75 Q445.925,64.5313 445.3,64.5313 Q444.5344,64.5313 443.8938,64.8594 Q443.2688,65.1875 442.7688,65.9375 Q442.2844,66.6875 442.2844,67.7188 L442.2844,68.8125 Q442.2844,70.0469 443.175,70.875 Q444.0656,71.6875 445.6594,71.6875 Q446.5969,71.6875 447.2531,71.4375 Q447.6438,71.2813 448.0656,70.8438 Q448.3313,70.5781 448.4719,70.5 Q448.6281,70.4219 448.8313,70.4219 Q449.1594,70.4219 449.4094,70.6875 Q449.675,70.9375 449.675,71.2813 Q449.675,71.625 449.3313,72.0313 Q448.8313,72.6094 448.0344,72.9375 Q446.9563,73.3906 445.6594,73.3906 Q444.1438,73.3906 442.9406,72.7656 Q441.9563,72.2656 441.2688,71.2031 Q440.5813,70.125 440.5813,68.8438 L440.5813,67.6875 Q440.5813,66.3594 441.1906,65.2188 Q441.8156,64.0625 442.9094,63.4531 Q444.0031,62.8281 445.2375,62.8281 Q445.9719,62.8281 446.6125,63 Q447.2688,63.1563 447.8156,63.5156 Z " fill="#000000"/><text fill="#000000" font-family="sans-serif" font-size="14" lengthAdjust="spacing" textLength="108" x="460.95" y="72.4941">TrabalhadorHora</text><line style="stroke:#181818;stroke-width:0.5;" x1="422.5" x2="579.5" y1="83.6406" y2="83.6406"/><rect fill="none" height="6" style="stroke:#C82930;stroke-width:1.0;" width="6" x="429.5" y="93.9609"/><text fill="#000000" font-family="sans-serif" font-size="14" lengthAdjust="spacing" textLength="108" x="441.5" y="100.3145">int: numeroHoras</text><rect fill="none" height="6" style="stroke:#C82930;stroke-width:1.0;" width="6" x="429.5" y="109.6016"/><text fill="#000000" font-family="sans-serif" font-size="14" lengthAdjust="spacing" textLength="132" x="441.5" y="115.9551">float pagamentoHora</text><line style="stroke:#181818;stroke-width:0.5;" x1="422.5" x2="579.5" y1="122.9219" y2="122.9219"/><ellipse cx="432.5" cy="136.2422" fill="#84BE84" rx="3" ry="3" style="stroke:#038048;stroke-width:1.0;"/><text fill="#000000" font-family="sans-serif" font-size="14" lengthAdjust="spacing" textLength="133" x="441.5" y="139.5957">calcularVencimento()</text></g><!--link TrabalhadorComissao to Trabalhador--><g id="link_TrabalhadorComissao_Trabalhador"><path codeLine="31" d="M300,155.0106 C300,167.5306 300,181.0506 300,194.2506 " fill="none" id="TrabalhadorComissao-to-Trabalhador" style="stroke:#181818;stroke-width:1.0;"/><polygon fill="none" points="307,194.5506,300,214.5506,293,194.5506,307,194.5506" style="stroke:#181818;stroke-width:1.0;"/></g><!--link TrabalhadorHora to Trabalhador--><g id="link_TrabalhadorHora_Trabalhador"><path codeLine="32" d="M445.54,146.7706 C425.44,163.6706 402.3,183.1206 380.48,201.4706 " fill="none" id="TrabalhadorHora-to-Trabalhador" style="stroke:#181818;stroke-width:1.0;"/><polygon fill="none" points="384.7,207.0706,364.88,214.5906,375.69,196.3606,384.7,207.0706" style="stroke:#181818;stroke-width:1.0;"/></g><!--link TrabalhadorPe?a to Trabalhador--><g id="link_TrabalhadorPe&#231;a_Trabalhador"><path codeLine="33" d="M150.11,146.7706 C170.92,163.7506 194.87,183.3106 217.44,201.7406 " fill="none" id="TrabalhadorPe&#231;a-to-Trabalhador" style="stroke:#181818;stroke-width:1.0;"/><polygon fill="none" points="222.11,196.5106,233.18,214.5906,213.26,207.3606,222.11,196.5106" style="stroke:#181818;stroke-width:1.0;"/></g><!--SRC=[bP2nJiCm48PtFuKtG2X4C7PWe1sOKAL6x7-T8xLa-oAVqmLu7Xw45yCEY4G58h6TFzrz_vtF3YdrighhtY6amRihmxus3Y9LQz55UAKQcnpfTO5wymdr8mLZFON4eXJsaY9Cqat47kw0bkEpglGkHHkwbGxiILtgZj93hiulSYspsi2PmI5EpenVbHhNc3ktzFw68hOXPUlWAVAM3AInFL__mM_c2O6M4zRihGYuX3mvHjO9yg3bEmXDy4YXXKnlypNtdslkEPuUKz2tLVVeC0eANZ3_ih-kgfVRUPWw2Lvi6F_vHyS7]--></g></svg>