<?xml version="1.0" encoding="us-ascii" standalone="no"?><svg xmlns="http://www.w3.org/2000/svg" xmlns:xlink="http://www.w3.org/1999/xlink" contentStyleType="text/css" height="456px" preserveAspectRatio="none" style="width:351px;height:456px;background:#FFFFFF;" version="1.1" viewBox="0 0 351 456" width="351px" zoomAndPan="magnify"><defs/><g><text fill="#000000" font-family="sans-serif" font-size="14" font-weight="bold" lengthAdjust="spacing" textLength="158" x="89.5" y="22.6738">Class Diagram - Escola</text><!--class Elemento--><g id="elem_Elemento"><rect codeLine="5" fill="#F1F1F1" height="94.9219" id="Elemento" rx="2.5" ry="2.5" style="stroke:#181818;stroke-width:0.5;" width="206" x="54" y="43.6406"/><ellipse cx="123.25" cy="59.6406" fill="#A9DCDF" rx="11" ry="11" style="stroke:#181818;stroke-width:1.0;"/><path d="M125.4375,61.4063 L121.2969,61.4063 L120.875,62.4375 L121.2969,62.4375 Q121.9063,62.4375 122.1719,62.6719 Q122.4375,62.9063 122.4375,63.2969 Q122.4375,63.6719 122.1719,63.9063 Q121.9063,64.1406 121.2969,64.1406 L119,64.1406 Q118.3906,64.1406 118.1406,63.9063 Q117.875,63.6719 117.875,63.2813 Q117.875,62.9063 118.1563,62.6719 Q118.4219,62.4219 119.0469,62.4375 L121.7188,55.7813 L120.6094,55.7813 Q120,55.7813 119.7344,55.5469 Q119.4688,55.3125 119.4688,54.9219 Q119.4688,54.5469 119.7344,54.3125 Q120,54.0781 120.6094,54.0781 L124.2813,54.0781 L127.6719,62.4375 Q128.2656,62.4375 128.4531,62.5781 Q128.8438,62.8438 128.8438,63.2969 Q128.8438,63.6719 128.5781,63.9063 Q128.3281,64.1406 127.7188,64.1406 L125.4219,64.1406 Q124.8125,64.1406 124.5469,63.9063 Q124.2813,63.6719 124.2813,63.2813 Q124.2813,62.9063 124.5469,62.6719 Q124.8125,62.4375 125.4219,62.4375 L125.8438,62.4375 L125.4375,61.4063 Z M124.7188,59.7031 L123.3594,56.3281 L121.9844,59.7031 L124.7188,59.7031 Z " fill="#000000"/><text fill="#000000" font-family="sans-serif" font-size="14" font-style="italic" lengthAdjust="spacing" textLength="59" x="143.75" y="64.4941">Elemento</text><line style="stroke:#181818;stroke-width:0.5;" x1="55" x2="259" y1="75.6406" y2="75.6406"/><rect fill="none" height="6" style="stroke:#C82930;stroke-width:1.0;" width="6" x="62" y="85.9609"/><text fill="#000000" font-family="sans-serif" font-size="14" lengthAdjust="spacing" textLength="84" x="74" y="92.3145">String : nome</text><rect fill="none" height="6" style="stroke:#C82930;stroke-width:1.0;" width="6" x="62" y="101.6016"/><text fill="#000000" font-family="sans-serif" font-size="14" lengthAdjust="spacing" textLength="180" x="74" y="107.9551">int : numeroIdentificacaoCivil</text><line style="stroke:#181818;stroke-width:0.5;" x1="55" x2="259" y1="114.9219" y2="114.9219"/><ellipse cx="65" cy="128.2422" fill="#84BE84" rx="3" ry="3" style="stroke:#038048;stroke-width:1.0;"/><text fill="#000000" font-family="sans-serif" font-size="14" lengthAdjust="spacing" textLength="137" x="74" y="131.5957">calcularValorMensal()</text></g><!--class Categoria--><g id="elem_Categoria"><rect codeLine="11" fill="#F1F1F1" height="94.9219" id="Categoria" rx="2.5" ry="2.5" style="stroke:#181818;stroke-width:0.5;" width="122" x="7" y="354.6406"/><ellipse cx="34.6" cy="370.6406" fill="#EB937F" rx="11" ry="11" style="stroke:#181818;stroke-width:1.0;"/><path d="M33.4594,371.4375 L33.4594,373.9375 L37.7875,373.9375 L37.7875,373.0156 Q37.7875,372.4063 38.0219,372.1406 Q38.2719,371.875 38.6469,371.875 Q39.0219,371.875 39.2563,372.1406 Q39.4906,372.4063 39.4906,373.0156 L39.4906,375.6406 L31.4906,375.6406 Q30.8656,375.6406 30.6,375.4063 Q30.35,375.1719 30.35,374.7813 Q30.35,374.4063 30.6156,374.1719 Q30.8813,373.9375 31.4906,373.9375 L31.7563,373.9375 L31.7563,367.2813 L31.4906,367.2813 Q30.8656,367.2813 30.6,367.0469 Q30.35,366.8125 30.35,366.4219 Q30.35,366.0469 30.6,365.8125 Q30.8656,365.5781 31.4906,365.5781 L39.1156,365.5781 L39.1156,368.1719 Q39.1156,368.7813 38.8813,369.0469 Q38.6625,369.2969 38.2719,369.2969 Q37.8969,369.2969 37.6625,369.0469 Q37.4281,368.7813 37.4281,368.1719 L37.4281,367.2813 L33.4594,367.2813 L33.4594,369.7344 L34.9438,369.7344 Q34.9438,369.0781 35.0688,368.8906 Q35.3344,368.4844 35.8031,368.4844 Q36.1781,368.4844 36.4125,368.75 Q36.6469,369 36.6469,369.6094 L36.6469,371.5781 Q36.6469,372.125 36.5219,372.3125 Q36.2563,372.7031 35.8031,372.7031 Q35.3344,372.7031 35.0688,372.2969 Q34.9438,372.1094 34.9438,371.4375 L33.4594,371.4375 Z " fill="#000000"/><text fill="#000000" font-family="sans-serif" font-size="14" lengthAdjust="spacing" textLength="62" x="51.4" y="375.4941">Categoria</text><line style="stroke:#181818;stroke-width:0.5;" x1="8" x2="128" y1="386.6406" y2="386.6406"/><text fill="#000000" font-family="sans-serif" font-size="14" lengthAdjust="spacing" textLength="84" x="13" y="403.3145">ASSISTENTE</text><text fill="#000000" font-family="sans-serif" font-size="14" lengthAdjust="spacing" textLength="63" x="13" y="418.9551">ADJUNTO</text><text fill="#000000" font-family="sans-serif" font-size="14" lengthAdjust="spacing" textLength="110" x="13" y="434.5957">COORDENADOR</text><line style="stroke:#181818;stroke-width:0.5;" x1="8" x2="128" y1="441.5625" y2="441.5625"/></g><!--class Professor--><g id="elem_Professor"><rect codeLine="17" fill="#F1F1F1" height="48" id="Professor" rx="2.5" ry="2.5" style="stroke:#181818;stroke-width:0.5;" width="93" x="21.5" y="215.1406"/><ellipse cx="36.5" cy="231.1406" fill="#ADD1B2" rx="11" ry="11" style="stroke:#181818;stroke-width:1.0;"/><path d="M39.2656,227.0156 Q39.4219,226.7969 39.6094,226.6875 Q39.7969,226.5781 40.0156,226.5781 Q40.3906,226.5781 40.625,226.8438 Q40.8594,227.0938 40.8594,227.7031 L40.8594,229.1563 Q40.8594,229.7656 40.625,230.0313 Q40.3906,230.2969 40.0156,230.2969 Q39.6719,230.2969 39.4688,230.0938 Q39.2656,229.9063 39.1563,229.3906 Q39.1094,229.0313 38.9219,228.8438 Q38.5938,228.4688 37.9844,228.25 Q37.375,228.0313 36.75,228.0313 Q35.9844,228.0313 35.3438,228.3594 Q34.7188,228.6875 34.2188,229.4375 Q33.7344,230.1875 33.7344,231.2188 L33.7344,232.3125 Q33.7344,233.5469 34.625,234.375 Q35.5156,235.1875 37.1094,235.1875 Q38.0469,235.1875 38.7031,234.9375 Q39.0938,234.7813 39.5156,234.3438 Q39.7813,234.0781 39.9219,234 Q40.0781,233.9219 40.2813,233.9219 Q40.6094,233.9219 40.8594,234.1875 Q41.125,234.4375 41.125,234.7813 Q41.125,235.125 40.7813,235.5313 Q40.2813,236.1094 39.4844,236.4375 Q38.4063,236.8906 37.1094,236.8906 Q35.5938,236.8906 34.3906,236.2656 Q33.4063,235.7656 32.7188,234.7031 Q32.0313,233.625 32.0313,232.3438 L32.0313,231.1875 Q32.0313,229.8594 32.6406,228.7188 Q33.2656,227.5625 34.3594,226.9531 Q35.4531,226.3281 36.6875,226.3281 Q37.4219,226.3281 38.0625,226.5 Q38.7188,226.6563 39.2656,227.0156 Z " fill="#000000"/><text fill="#000000" font-family="sans-serif" font-size="14" lengthAdjust="spacing" textLength="61" x="50.5" y="235.9941">Professor</text><line style="stroke:#181818;stroke-width:0.5;" x1="22.5" x2="113.5" y1="247.1406" y2="247.1406"/><line style="stroke:#181818;stroke-width:0.5;" x1="22.5" x2="113.5" y1="255.1406" y2="255.1406"/></g><!--class Aluno--><g id="elem_Aluno"><rect codeLine="20" fill="#F1F1F1" height="79.2813" id="Aluno" rx="2.5" ry="2.5" style="stroke:#181818;stroke-width:0.5;" width="194" x="150" y="199.6406"/><ellipse cx="224.75" cy="215.6406" fill="#ADD1B2" rx="11" ry="11" style="stroke:#181818;stroke-width:1.0;"/><path d="M227.5156,211.5156 Q227.6719,211.2969 227.8594,211.1875 Q228.0469,211.0781 228.2656,211.0781 Q228.6406,211.0781 228.875,211.3438 Q229.1094,211.5938 229.1094,212.2031 L229.1094,213.6563 Q229.1094,214.2656 228.875,214.5313 Q228.6406,214.7969 228.2656,214.7969 Q227.9219,214.7969 227.7188,214.5938 Q227.5156,214.4063 227.4063,213.8906 Q227.3594,213.5313 227.1719,213.3438 Q226.8438,212.9688 226.2344,212.75 Q225.625,212.5313 225,212.5313 Q224.2344,212.5313 223.5938,212.8594 Q222.9688,213.1875 222.4688,213.9375 Q221.9844,214.6875 221.9844,215.7188 L221.9844,216.8125 Q221.9844,218.0469 222.875,218.875 Q223.7656,219.6875 225.3594,219.6875 Q226.2969,219.6875 226.9531,219.4375 Q227.3438,219.2813 227.7656,218.8438 Q228.0313,218.5781 228.1719,218.5 Q228.3281,218.4219 228.5313,218.4219 Q228.8594,218.4219 229.1094,218.6875 Q229.375,218.9375 229.375,219.2813 Q229.375,219.625 229.0313,220.0313 Q228.5313,220.6094 227.7344,220.9375 Q226.6563,221.3906 225.3594,221.3906 Q223.8438,221.3906 222.6406,220.7656 Q221.6563,220.2656 220.9688,219.2031 Q220.2813,218.125 220.2813,216.8438 L220.2813,215.6875 Q220.2813,214.3594 220.8906,213.2188 Q221.5156,212.0625 222.6094,211.4531 Q223.7031,210.8281 224.9375,210.8281 Q225.6719,210.8281 226.3125,211 Q226.9688,211.1563 227.5156,211.5156 Z " fill="#000000"/><text fill="#000000" font-family="sans-serif" font-size="14" lengthAdjust="spacing" textLength="36" x="245.25" y="220.4941">Aluno</text><line style="stroke:#181818;stroke-width:0.5;" x1="151" x2="343" y1="231.6406" y2="231.6406"/><rect fill="none" height="6" style="stroke:#C82930;stroke-width:1.0;" width="6" x="158" y="241.9609"/><text fill="#000000" font-family="sans-serif" font-size="14" lengthAdjust="spacing" textLength="113" x="170" y="248.3145">boolean : bolseiro</text><rect fill="none" height="6" style="stroke:#C82930;stroke-width:1.0;" width="6" x="158" y="257.6016"/><text fill="#000000" font-family="sans-serif" font-size="14" lengthAdjust="spacing" textLength="168" x="170" y="263.9551">int : numeroMecanografico</text><line style="stroke:#181818;stroke-width:0.5;" x1="151" x2="343" y1="270.9219" y2="270.9219"/></g><!--reverse link Elemento to Aluno--><g id="link_Elemento_Aluno"><path codeLine="25" d="M196.51,156.2406 C205.56,170.9206 214.91,186.0906 223.07,199.3206 " fill="none" id="Elemento-backto-Aluno" style="stroke:#181818;stroke-width:1.0;"/><polygon fill="none" points="190.26,159.4406,185.72,138.7406,202.18,152.0906,190.26,159.4406" style="stroke:#181818;stroke-width:1.0;"/></g><!--reverse link Elemento to Professor--><g id="link_Elemento_Professor"><path codeLine="26" d="M118.11,155.9406 C105.34,176.8806 91.94,198.8606 82.22,214.8106 " fill="none" id="Elemento-backto-Professor" style="stroke:#181818;stroke-width:1.0;"/><polygon fill="none" points="112.21,152.1706,128.6,138.7406,124.16,159.4606,112.21,152.1706" style="stroke:#181818;stroke-width:1.0;"/></g><!--link Professor to Categoria--><g id="link_Professor_Categoria"><path codeLine="27" d="M68,263.2106 C68,285.5506 68,320.2206 68,349.2106 " fill="none" id="Professor-to-Categoria" style="stroke:#181818;stroke-width:1.0;"/><polygon fill="#181818" points="68,354.5506,72,345.5506,68,349.5506,64,345.5506,68,354.5506" style="stroke:#181818;stroke-width:1.0;"/><polygon fill="#000000" points="73,321.9023,75.9389,312.8573,70.0611,312.8573,73,321.9023" style="stroke:#000000;stroke-width:1.0;"/><text fill="#000000" font-family="sans-serif" font-size="13" lengthAdjust="spacing" textLength="125" x="82" y="321.4092">tem simult&#226;neamente</text><text fill="#000000" font-family="sans-serif" font-size="13" lengthAdjust="spacing" textLength="7" x="60.1031" y="283.0079">1</text><text fill="#000000" font-family="sans-serif" font-size="13" lengthAdjust="spacing" textLength="7" x="60.4641" y="344.0061">1</text></g><!--SRC=[NOz1JiCm44NtSufHDu2GgTXMg5AKP56aDgW9xAVkj5WQUohROLEu35VXOYIjA59NzdpD__F-pNlEXpIRJWz28VTU7gpwgHLAoMmTxIDvWCvbOIn74QkpY0RhP5K8W3OfHx8PJowiXJs7h4SmsERemXvd6DJpCBkGnw7t77Mn7RRSpbcofANxS0BtQ4biBnJVI3GkEIIIsplu0k31X2LbtcjqT8IYRHTjLw-w6ehg-NNLDL0spRggLqNLh4V7cUObwevJqdZyrmhfmmbleofCOK3Qg2HsKQyObsmfwD1tmDGnuAySFdqQSmwwqYu7uVB3oUC4ZPcVtak7uGXczfYSxoN_V0UcCOPn3hy0]--></g></svg>