<?xml version="1.0" encoding="us-ascii" standalone="no"?><svg xmlns="http://www.w3.org/2000/svg" xmlns:xlink="http://www.w3.org/1999/xlink" contentStyleType="text/css" height="347px" preserveAspectRatio="none" style="width:264px;height:347px;background:#FFFFFF;" version="1.1" viewBox="0 0 264 347" width="264px" zoomAndPan="magnify"><defs/><g><text fill="#000000" font-family="sans-serif" font-size="14" font-weight="bold" lengthAdjust="spacing" textLength="184" x="33" y="22.6738">Class Diagram - Exposi&#231;&#227;o</text><!--class Quadro--><g id="elem_Quadro"><rect codeLine="5" fill="#F1F1F1" height="94.9219" id="Quadro" rx="2.5" ry="2.5" style="stroke:#181818;stroke-width:0.5;" width="148" x="58" y="245.6406"/><ellipse cx="103.75" cy="261.6406" fill="#ADD1B2" rx="11" ry="11" style="stroke:#181818;stroke-width:1.0;"/><path d="M106.5156,257.5156 Q106.6719,257.2969 106.8594,257.1875 Q107.0469,257.0781 107.2656,257.0781 Q107.6406,257.0781 107.875,257.3438 Q108.1094,257.5938 108.1094,258.2031 L108.1094,259.6563 Q108.1094,260.2656 107.875,260.5313 Q107.6406,260.7969 107.2656,260.7969 Q106.9219,260.7969 106.7188,260.5938 Q106.5156,260.4063 106.4063,259.8906 Q106.3594,259.5313 106.1719,259.3438 Q105.8438,258.9688 105.2344,258.75 Q104.625,258.5313 104,258.5313 Q103.2344,258.5313 102.5938,258.8594 Q101.9688,259.1875 101.4688,259.9375 Q100.9844,260.6875 100.9844,261.7188 L100.9844,262.8125 Q100.9844,264.0469 101.875,264.875 Q102.7656,265.6875 104.3594,265.6875 Q105.2969,265.6875 105.9531,265.4375 Q106.3438,265.2813 106.7656,264.8438 Q107.0313,264.5781 107.1719,264.5 Q107.3281,264.4219 107.5313,264.4219 Q107.8594,264.4219 108.1094,264.6875 Q108.375,264.9375 108.375,265.2813 Q108.375,265.625 108.0313,266.0313 Q107.5313,266.6094 106.7344,266.9375 Q105.6563,267.3906 104.3594,267.3906 Q102.8438,267.3906 101.6406,266.7656 Q100.6563,266.2656 99.9688,265.2031 Q99.2813,264.125 99.2813,262.8438 L99.2813,261.6875 Q99.2813,260.3594 99.8906,259.2188 Q100.5156,258.0625 101.6094,257.4531 Q102.7031,256.8281 103.9375,256.8281 Q104.6719,256.8281 105.3125,257 Q105.9688,257.1563 106.5156,257.5156 Z " fill="#000000"/><text fill="#000000" font-family="sans-serif" font-size="14" lengthAdjust="spacing" textLength="48" x="124.25" y="266.4941">Quadro</text><line style="stroke:#181818;stroke-width:0.5;" x1="59" x2="205" y1="277.6406" y2="277.6406"/><rect fill="none" height="6" style="stroke:#C82930;stroke-width:1.0;" width="6" x="66" y="287.9609"/><text fill="#000000" font-family="sans-serif" font-size="14" lengthAdjust="spacing" textLength="122" x="78" y="294.3145">designacao : String</text><rect fill="none" height="6" style="stroke:#C82930;stroke-width:1.0;" width="6" x="66" y="303.6016"/><text fill="#000000" font-family="sans-serif" font-size="14" lengthAdjust="spacing" textLength="118" x="78" y="309.9551">nomeAutor : String</text><rect fill="none" height="6" style="stroke:#C82930;stroke-width:1.0;" width="6" x="66" y="319.2422"/><text fill="#000000" font-family="sans-serif" font-size="14" lengthAdjust="spacing" textLength="100" x="78" y="325.5957">anoCriacao : int</text><line style="stroke:#181818;stroke-width:0.5;" x1="59" x2="205" y1="332.5625" y2="332.5625"/></g><!--class Exposicao--><g id="elem_Exposicao"><rect codeLine="11" fill="#F1F1F1" height="126.2031" id="Exposicao" rx="2.5" ry="2.5" style="stroke:#181818;stroke-width:0.5;" width="250" x="7" y="43.6406"/><ellipse cx="95.75" cy="59.6406" fill="#ADD1B2" rx="11" ry="11" style="stroke:#181818;stroke-width:1.0;"/><path d="M98.5156,55.5156 Q98.6719,55.2969 98.8594,55.1875 Q99.0469,55.0781 99.2656,55.0781 Q99.6406,55.0781 99.875,55.3438 Q100.1094,55.5938 100.1094,56.2031 L100.1094,57.6563 Q100.1094,58.2656 99.875,58.5313 Q99.6406,58.7969 99.2656,58.7969 Q98.9219,58.7969 98.7188,58.5938 Q98.5156,58.4063 98.4063,57.8906 Q98.3594,57.5313 98.1719,57.3438 Q97.8438,56.9688 97.2344,56.75 Q96.625,56.5313 96,56.5313 Q95.2344,56.5313 94.5938,56.8594 Q93.9688,57.1875 93.4688,57.9375 Q92.9844,58.6875 92.9844,59.7188 L92.9844,60.8125 Q92.9844,62.0469 93.875,62.875 Q94.7656,63.6875 96.3594,63.6875 Q97.2969,63.6875 97.9531,63.4375 Q98.3438,63.2813 98.7656,62.8438 Q99.0313,62.5781 99.1719,62.5 Q99.3281,62.4219 99.5313,62.4219 Q99.8594,62.4219 100.1094,62.6875 Q100.375,62.9375 100.375,63.2813 Q100.375,63.625 100.0313,64.0313 Q99.5313,64.6094 98.7344,64.9375 Q97.6563,65.3906 96.3594,65.3906 Q94.8438,65.3906 93.6406,64.7656 Q92.6563,64.2656 91.9688,63.2031 Q91.2813,62.125 91.2813,60.8438 L91.2813,59.6875 Q91.2813,58.3594 91.8906,57.2188 Q92.5156,56.0625 93.6094,55.4531 Q94.7031,54.8281 95.9375,54.8281 Q96.6719,54.8281 97.3125,55 Q97.9688,55.1563 98.5156,55.5156 Z " fill="#000000"/><text fill="#000000" font-family="sans-serif" font-size="14" lengthAdjust="spacing" textLength="64" x="116.25" y="64.4941">Exposicao</text><line style="stroke:#181818;stroke-width:0.5;" x1="8" x2="256" y1="75.6406" y2="75.6406"/><rect fill="none" height="6" style="stroke:#C82930;stroke-width:1.0;" width="6" x="15" y="85.9609"/><text fill="#000000" font-family="sans-serif" font-size="14" lengthAdjust="spacing" textLength="122" x="27" y="92.3145">designacao : String</text><rect fill="none" height="6" style="stroke:#C82930;stroke-width:1.0;" width="6" x="15" y="101.6016"/><text fill="#000000" font-family="sans-serif" font-size="14" lengthAdjust="spacing" textLength="120" x="27" y="107.9551">anoRealizacao : int</text><rect fill="none" height="6" style="stroke:#C82930;stroke-width:1.0;" width="6" x="15" y="117.2422"/><text fill="#000000" font-family="sans-serif" font-size="14" lengthAdjust="spacing" textLength="81" x="27" y="123.5957">quadros : list</text><line style="stroke:#181818;stroke-width:0.5;" x1="8" x2="256" y1="130.5625" y2="130.5625"/><ellipse cx="18" cy="143.8828" fill="#84BE84" rx="3" ry="3" style="stroke:#038048;stroke-width:1.0;"/><text fill="#000000" font-family="sans-serif" font-size="14" lengthAdjust="spacing" textLength="224" x="27" y="147.2363">adicionarQuadro(quadro) : boolean</text><ellipse cx="18" cy="159.5234" fill="#84BE84" rx="3" ry="3" style="stroke:#038048;stroke-width:1.0;"/><text fill="#000000" font-family="sans-serif" font-size="14" lengthAdjust="spacing" textLength="218" x="27" y="162.877">removerQuadro(quadro) : boolean</text></g><!--link Exposicao to Quadro--><g id="link_Exposicao_Quadro"><path codeLine="19" d="M132,169.8506 C132,192.7006 132,218.3206 132,240.1806 " fill="none" id="Exposicao-to-Quadro" style="stroke:#181818;stroke-width:1.0;"/><polygon fill="#181818" points="132,245.3606,136,236.3606,132,240.3606,128,236.3606,132,245.3606" style="stroke:#181818;stroke-width:1.0;"/><text fill="#000000" font-family="sans-serif" font-size="13" lengthAdjust="spacing" textLength="21" x="133" y="212.4092">has</text><text fill="#000000" font-family="sans-serif" font-size="13" lengthAdjust="spacing" textLength="24" x="101.8563" y="234.787">0...*</text></g><!--SRC=[TOzB3i8m34JtEON5Xf_IicQ1X803yBc0QQFMKXAN94K8n6bOS10kHcWBOjEbns_6us4PGkNdQLffjA4sEidOf9b6xsLEM3WqGXmeQ0MhZmZhLWG9cql5dbxFruE5Q1omhJ5tV1CISkMfi9WXmnpsmP4jechPg6KTsFsBQ7dbg4F91d7_nhKNug8_CPft2ZLT__mIJaqF7sTDFeWfO4uPiKNNDXorm3W2HsQjq4R6ASDdrK_4Mhz28EK21hCaIIOmwDwEQ8bUl040]--></g></svg>