<?xml version="1.0" encoding="us-ascii" standalone="no"?><svg xmlns="http://www.w3.org/2000/svg" xmlns:xlink="http://www.w3.org/1999/xlink" contentStyleType="text/css" height="456px" preserveAspectRatio="none" style="width:437px;height:456px;background:#FFFFFF;" version="1.1" viewBox="0 0 437 456" width="437px" zoomAndPan="magnify"><defs/><g><text fill="#000000" font-family="sans-serif" font-size="14" font-weight="bold" lengthAdjust="spacing" textLength="99" x="162" y="22.6738">Class Diagram</text><!--class Veiculo--><g id="elem_Veiculo"><rect codeLine="5" fill="#F1F1F1" height="110.5625" id="Veiculo" rx="2.5" ry="2.5" style="stroke:#181818;stroke-width:0.5;" width="189" x="7" y="43.6406"/><ellipse cx="74.25" cy="59.6406" fill="#ADD1B2" rx="11" ry="11" style="stroke:#181818;stroke-width:1.0;"/><path d="M77.0156,55.5156 Q77.1719,55.2969 77.3594,55.1875 Q77.5469,55.0781 77.7656,55.0781 Q78.1406,55.0781 78.375,55.3438 Q78.6094,55.5938 78.6094,56.2031 L78.6094,57.6563 Q78.6094,58.2656 78.375,58.5313 Q78.1406,58.7969 77.7656,58.7969 Q77.4219,58.7969 77.2188,58.5938 Q77.0156,58.4063 76.9063,57.8906 Q76.8594,57.5313 76.6719,57.3438 Q76.3438,56.9688 75.7344,56.75 Q75.125,56.5313 74.5,56.5313 Q73.7344,56.5313 73.0938,56.8594 Q72.4688,57.1875 71.9688,57.9375 Q71.4844,58.6875 71.4844,59.7188 L71.4844,60.8125 Q71.4844,62.0469 72.375,62.875 Q73.2656,63.6875 74.8594,63.6875 Q75.7969,63.6875 76.4531,63.4375 Q76.8438,63.2813 77.2656,62.8438 Q77.5313,62.5781 77.6719,62.5 Q77.8281,62.4219 78.0313,62.4219 Q78.3594,62.4219 78.6094,62.6875 Q78.875,62.9375 78.875,63.2813 Q78.875,63.625 78.5313,64.0313 Q78.0313,64.6094 77.2344,64.9375 Q76.1563,65.3906 74.8594,65.3906 Q73.3438,65.3906 72.1406,64.7656 Q71.1563,64.2656 70.4688,63.2031 Q69.7813,62.125 69.7813,60.8438 L69.7813,59.6875 Q69.7813,58.3594 70.3906,57.2188 Q71.0156,56.0625 72.1094,55.4531 Q73.2031,54.8281 74.4375,54.8281 Q75.1719,54.8281 75.8125,55 Q76.4688,55.1563 77.0156,55.5156 Z " fill="#000000"/><text fill="#000000" font-family="sans-serif" font-size="14" lengthAdjust="spacing" textLength="46" x="94.75" y="64.4941">Veiculo</text><line style="stroke:#181818;stroke-width:0.5;" x1="8" x2="195" y1="75.6406" y2="75.6406"/><rect fill="none" height="6" style="stroke:#C82930;stroke-width:1.0;" width="6" x="15" y="85.9609"/><text fill="#000000" font-family="sans-serif" font-size="14" lengthAdjust="spacing" textLength="98" x="27" y="92.3145">String matricula</text><rect fill="none" height="6" style="stroke:#C82930;stroke-width:1.0;" width="6" x="15" y="101.6016"/><text fill="#000000" font-family="sans-serif" font-size="14" lengthAdjust="spacing" textLength="80" x="27" y="107.9551">int cilindrada</text><rect fill="none" height="6" style="stroke:#C82930;stroke-width:1.0;" width="6" x="15" y="117.2422"/><text fill="#000000" font-family="sans-serif" font-size="14" lengthAdjust="spacing" textLength="61" x="27" y="123.5957">String cor</text><line style="stroke:#181818;stroke-width:0.5;" x1="8" x2="195" y1="130.5625" y2="130.5625"/><ellipse cx="18" cy="143.8828" fill="#84BE84" rx="3" ry="3" style="stroke:#038048;stroke-width:1.0;"/><text fill="#000000" font-family="sans-serif" font-size="14" lengthAdjust="spacing" textLength="163" x="27" y="147.2363">calcularImposto() : double</text></g><!--class Cores--><g id="elem_Cores"><rect codeLine="13" fill="#F1F1F1" height="110.5625" id="Cores" rx="2.5" ry="2.5" style="stroke:#181818;stroke-width:0.5;" width="157" x="135" y="214.6406"/><ellipse cx="190.25" cy="230.6406" fill="#B4A7E5" rx="11" ry="11" style="stroke:#181818;stroke-width:1.0;"/><path d="M191.2031,227.2813 L191.2031,233.9375 L192.9219,233.9375 Q193.5313,233.9375 193.7969,234.1719 Q194.0625,234.4063 194.0625,234.7969 Q194.0625,235.1719 193.7969,235.4063 Q193.5313,235.6406 192.9219,235.6406 L187.7813,235.6406 Q187.1719,235.6406 186.9063,235.4063 Q186.6406,235.1719 186.6406,234.7813 Q186.6406,234.4063 186.9063,234.1719 Q187.1719,233.9375 187.7813,233.9375 L189.5,233.9375 L189.5,227.2813 L187.7813,227.2813 Q187.1719,227.2813 186.9063,227.0469 Q186.6406,226.8125 186.6406,226.4219 Q186.6406,226.0469 186.9063,225.8125 Q187.1719,225.5781 187.7813,225.5781 L192.9219,225.5781 Q193.5313,225.5781 193.7969,225.8125 Q194.0625,226.0469 194.0625,226.4219 Q194.0625,226.8125 193.7969,227.0469 Q193.5313,227.2813 192.9219,227.2813 L191.2031,227.2813 Z " fill="#000000"/><text fill="#000000" font-family="sans-serif" font-size="14" font-style="italic" lengthAdjust="spacing" textLength="38" x="210.75" y="235.4941">Cores</text><line style="stroke:#181818;stroke-width:0.5;" x1="136" x2="291" y1="246.6406" y2="246.6406"/><ellipse cx="146" cy="259.9609" fill="none" rx="3" ry="3" style="stroke:#038048;stroke-width:1.0;"/><text fill="#000000" font-family="sans-serif" font-size="14" lengthAdjust="spacing" text-decoration="underline" textLength="79" x="155" y="263.3145">AZUL: String</text><ellipse cx="146" cy="275.6016" fill="none" rx="3" ry="3" style="stroke:#038048;stroke-width:1.0;"/><text fill="#000000" font-family="sans-serif" font-size="14" lengthAdjust="spacing" text-decoration="underline" textLength="113" x="155" y="278.9551">CINZENTO: String</text><ellipse cx="146" cy="291.2422" fill="none" rx="3" ry="3" style="stroke:#038048;stroke-width:1.0;"/><text fill="#000000" font-family="sans-serif" font-size="14" lengthAdjust="spacing" text-decoration="underline" textLength="131" x="155" y="294.5957">ENCARNADO: String</text><ellipse cx="146" cy="306.8828" fill="none" rx="3" ry="3" style="stroke:#038048;stroke-width:1.0;"/><text fill="#000000" font-family="sans-serif" font-size="14" lengthAdjust="spacing" text-decoration="underline" textLength="92" x="155" y="310.2363">VERDE: String</text><line style="stroke:#181818;stroke-width:0.5;" x1="136" x2="291" y1="317.2031" y2="317.2031"/></g><!--class Moradia--><g id="elem_Moradia"><rect codeLine="20" fill="#F1F1F1" height="110.5625" id="Moradia" rx="2.5" ry="2.5" style="stroke:#181818;stroke-width:0.5;" width="189" x="241" y="43.6406"/><ellipse cx="305.75" cy="59.6406" fill="#ADD1B2" rx="11" ry="11" style="stroke:#181818;stroke-width:1.0;"/><path d="M308.5156,55.5156 Q308.6719,55.2969 308.8594,55.1875 Q309.0469,55.0781 309.2656,55.0781 Q309.6406,55.0781 309.875,55.3438 Q310.1094,55.5938 310.1094,56.2031 L310.1094,57.6563 Q310.1094,58.2656 309.875,58.5313 Q309.6406,58.7969 309.2656,58.7969 Q308.9219,58.7969 308.7188,58.5938 Q308.5156,58.4063 308.4063,57.8906 Q308.3594,57.5313 308.1719,57.3438 Q307.8438,56.9688 307.2344,56.75 Q306.625,56.5313 306,56.5313 Q305.2344,56.5313 304.5938,56.8594 Q303.9688,57.1875 303.4688,57.9375 Q302.9844,58.6875 302.9844,59.7188 L302.9844,60.8125 Q302.9844,62.0469 303.875,62.875 Q304.7656,63.6875 306.3594,63.6875 Q307.2969,63.6875 307.9531,63.4375 Q308.3438,63.2813 308.7656,62.8438 Q309.0313,62.5781 309.1719,62.5 Q309.3281,62.4219 309.5313,62.4219 Q309.8594,62.4219 310.1094,62.6875 Q310.375,62.9375 310.375,63.2813 Q310.375,63.625 310.0313,64.0313 Q309.5313,64.6094 308.7344,64.9375 Q307.6563,65.3906 306.3594,65.3906 Q304.8438,65.3906 303.6406,64.7656 Q302.6563,64.2656 301.9688,63.2031 Q301.2813,62.125 301.2813,60.8438 L301.2813,59.6875 Q301.2813,58.3594 301.8906,57.2188 Q302.5156,56.0625 303.6094,55.4531 Q304.7031,54.8281 305.9375,54.8281 Q306.6719,54.8281 307.3125,55 Q307.9688,55.1563 308.5156,55.5156 Z " fill="#000000"/><text fill="#000000" font-family="sans-serif" font-size="14" lengthAdjust="spacing" textLength="51" x="326.25" y="64.4941">Moradia</text><line style="stroke:#181818;stroke-width:0.5;" x1="242" x2="429" y1="75.6406" y2="75.6406"/><rect fill="none" height="6" style="stroke:#C82930;stroke-width:1.0;" width="6" x="249" y="85.9609"/><text fill="#000000" font-family="sans-serif" font-size="14" lengthAdjust="spacing" textLength="89" x="261" y="92.3145">String morada</text><rect fill="none" height="6" style="stroke:#C82930;stroke-width:1.0;" width="6" x="249" y="101.6016"/><text fill="#000000" font-family="sans-serif" font-size="14" lengthAdjust="spacing" textLength="60" x="261" y="107.9551">float area</text><rect fill="none" height="6" style="stroke:#C82930;stroke-width:1.0;" width="6" x="249" y="117.2422"/><text fill="#000000" font-family="sans-serif" font-size="14" lengthAdjust="spacing" textLength="61" x="261" y="123.5957">String cor</text><line style="stroke:#181818;stroke-width:0.5;" x1="242" x2="429" y1="130.5625" y2="130.5625"/><ellipse cx="252" cy="143.8828" fill="#84BE84" rx="3" ry="3" style="stroke:#038048;stroke-width:1.0;"/><text fill="#000000" font-family="sans-serif" font-size="14" lengthAdjust="spacing" textLength="163" x="261" y="147.2363">calcularImposto() : double</text></g><!--class Tributaveis--><g id="elem_Tributaveis"><rect codeLine="27" fill="#F1F1F1" height="63.6406" id="Tributaveis" rx="2.5" ry="2.5" style="stroke:#181818;stroke-width:0.5;" width="124" x="151.5" y="385.6406"/><ellipse cx="176.85" cy="401.6406" fill="#B4A7E5" rx="11" ry="11" style="stroke:#181818;stroke-width:1.0;"/><path d="M177.8031,398.2813 L177.8031,404.9375 L179.5219,404.9375 Q180.1313,404.9375 180.3969,405.1719 Q180.6625,405.4063 180.6625,405.7969 Q180.6625,406.1719 180.3969,406.4063 Q180.1313,406.6406 179.5219,406.6406 L174.3813,406.6406 Q173.7719,406.6406 173.5063,406.4063 Q173.2406,406.1719 173.2406,405.7813 Q173.2406,405.4063 173.5063,405.1719 Q173.7719,404.9375 174.3813,404.9375 L176.1,404.9375 L176.1,398.2813 L174.3813,398.2813 Q173.7719,398.2813 173.5063,398.0469 Q173.2406,397.8125 173.2406,397.4219 Q173.2406,397.0469 173.5063,396.8125 Q173.7719,396.5781 174.3813,396.5781 L179.5219,396.5781 Q180.1313,396.5781 180.3969,396.8125 Q180.6625,397.0469 180.6625,397.4219 Q180.6625,397.8125 180.3969,398.0469 Q180.1313,398.2813 179.5219,398.2813 L177.8031,398.2813 Z " fill="#000000"/><text fill="#000000" font-family="sans-serif" font-size="14" font-style="italic" lengthAdjust="spacing" textLength="69" x="193.15" y="406.4941">Tributaveis</text><line style="stroke:#181818;stroke-width:0.5;" x1="152.5" x2="274.5" y1="417.6406" y2="417.6406"/><rect fill="none" height="6" style="stroke:#C82930;stroke-width:1.0;" width="6" x="159.5" y="427.9609"/><text fill="#000000" font-family="sans-serif" font-size="14" lengthAdjust="spacing" text-decoration="underline" textLength="98" x="171.5" y="434.3145">calcularImposto</text><line style="stroke:#181818;stroke-width:0.5;" x1="152.5" x2="274.5" y1="441.2813" y2="441.2813"/></g><!--link Veiculo to Cores--><g id="link_Veiculo_Cores"><path codeLine="31" d="M137.86,155.0106 C146.85,168.5806 156.62,183.3106 166.05,197.5406 " fill="none" id="Veiculo-to-Cores" style="stroke:#181818;stroke-width:1.0;stroke-dasharray:7.0,7.0;"/><polygon fill="none" points="172.11,194.0106,177.32,214.5506,160.44,201.7406,172.11,194.0106" style="stroke:#181818;stroke-width:1.0;"/></g><!--link Moradia to Cores--><g id="link_Moradia_Cores"><path codeLine="32" d="M295.89,155.0106 C285.99,168.7306 275.23,183.6306 264.85,198.0106 " fill="none" id="Moradia-to-Cores" style="stroke:#181818;stroke-width:1.0;stroke-dasharray:7.0,7.0;"/><polygon fill="none" points="270.29,202.4306,252.91,214.5506,258.94,194.2306,270.29,202.4306" style="stroke:#181818;stroke-width:1.0;"/></g><!--link Veiculo to Tributaveis--><g id="link_Veiculo_Tributaveis"><path codeLine="33" d="M94.66,154.8506 C91.15,202.3206 92.01,271.7006 117.5,325.6406 C125.71,343.0206 138.82,358.7706 152.75,372.0906 " fill="none" id="Veiculo-to-Tributaveis" style="stroke:#181818;stroke-width:1.0;stroke-dasharray:7.0,7.0;"/><polygon fill="none" points="157.63,367.0606,167.98,385.5506,148.36,377.5506,157.63,367.0606" style="stroke:#181818;stroke-width:1.0;"/></g><!--link Moradia to Tributaveis--><g id="link_Moradia_Tributaveis"><path codeLine="34" d="M339.37,155.0206 C340.42,202.6106 336.28,272.0606 309.5,325.6406 C300.91,342.8406 287.67,358.5206 273.74,371.8406 " fill="none" id="Moradia-to-Tributaveis" style="stroke:#181818;stroke-width:1.0;stroke-dasharray:7.0,7.0;"/><polygon fill="none" points="278.15,377.2806,258.54,385.3206,268.85,366.8106,278.15,377.2806" style="stroke:#181818;stroke-width:1.0;"/></g><!--SRC=[XP0nQyCm48Lt_OhRsX9ixnuAnlOGQ5r8tGpPBhAI74YMaUGkgVzxfSIfrHBe9FZUExrxzt1oRh1vbWqIUpSgcNAjCYxHsgGZF1fKZBNaf80oGAXkyEA1hI0-IdrcaC2xCzGVGQ5_FSJ0g7V0ILBV6UmmSd5j6Ao0emnMirQ3jau_Fa4EdHxtKh29CUR7XJaWz-dQ2EjZpjQX8px1gjXzlEJpTp4lryskRjgtUrhTbCMcAQgxuhRULFMFCDqglcg_Eg7FZZhgQnrF3bAZ0pG2OyEbth_zbdgjeVtey5DGABaibVpv0CBOV7H8qw_dws7Ol6IC5bTWKS1lSony0m00]--></g></svg>