<?xml version="1.0" encoding="us-ascii" standalone="no"?><svg xmlns="http://www.w3.org/2000/svg" xmlns:xlink="http://www.w3.org/1999/xlink" contentStyleType="text/css" height="268px" preserveAspectRatio="none" style="width:316px;height:268px;background:#FFFFFF;" version="1.1" viewBox="0 0 316 268" width="316px" zoomAndPan="magnify"><defs/><g><text fill="#000000" font-family="sans-serif" font-size="14" font-weight="bold" lengthAdjust="spacing" textLength="165" x="68.75" y="22.6738">Class Diagram - Figuras</text><!--class Figura--><g id="elem_Figura"><rect codeLine="5" fill="#F1F1F1" height="79.2813" id="Figura" rx="2.5" ry="2.5" style="stroke:#181818;stroke-width:0.5;" width="115" x="114.5" y="43.6406"/><ellipse cx="148.4" cy="59.6406" fill="#A9DCDF" rx="11" ry="11" style="stroke:#181818;stroke-width:1.0;"/><path d="M150.5875,61.4063 L146.4469,61.4063 L146.025,62.4375 L146.4469,62.4375 Q147.0563,62.4375 147.3219,62.6719 Q147.5875,62.9063 147.5875,63.2969 Q147.5875,63.6719 147.3219,63.9063 Q147.0563,64.1406 146.4469,64.1406 L144.15,64.1406 Q143.5406,64.1406 143.2906,63.9063 Q143.025,63.6719 143.025,63.2813 Q143.025,62.9063 143.3063,62.6719 Q143.5719,62.4219 144.1969,62.4375 L146.8688,55.7813 L145.7594,55.7813 Q145.15,55.7813 144.8844,55.5469 Q144.6188,55.3125 144.6188,54.9219 Q144.6188,54.5469 144.8844,54.3125 Q145.15,54.0781 145.7594,54.0781 L149.4313,54.0781 L152.8219,62.4375 Q153.4156,62.4375 153.6031,62.5781 Q153.9938,62.8438 153.9938,63.2969 Q153.9938,63.6719 153.7281,63.9063 Q153.4781,64.1406 152.8688,64.1406 L150.5719,64.1406 Q149.9625,64.1406 149.6969,63.9063 Q149.4313,63.6719 149.4313,63.2813 Q149.4313,62.9063 149.6969,62.6719 Q149.9625,62.4375 150.5719,62.4375 L150.9938,62.4375 L150.5875,61.4063 Z M149.8688,59.7031 L148.5094,56.3281 L147.1344,59.7031 L149.8688,59.7031 Z " fill="#000000"/><text fill="#000000" font-family="sans-serif" font-size="14" font-style="italic" lengthAdjust="spacing" textLength="41" x="166.6" y="64.4941">Figura</text><line style="stroke:#181818;stroke-width:0.5;" x1="115.5" x2="228.5" y1="75.6406" y2="75.6406"/><rect fill="none" height="6" style="stroke:#C82930;stroke-width:1.0;" width="6" x="122.5" y="85.9609"/><text fill="#000000" font-family="sans-serif" font-size="14" lengthAdjust="spacing" textLength="69" x="134.5" y="92.3145">String : cor</text><line style="stroke:#181818;stroke-width:0.5;" x1="115.5" x2="228.5" y1="99.2813" y2="99.2813"/><ellipse cx="125.5" cy="112.6016" fill="#84BE84" rx="3" ry="3" style="stroke:#038048;stroke-width:1.0;"/><text fill="#000000" font-family="sans-serif" font-size="14" lengthAdjust="spacing" textLength="89" x="134.5" y="115.9551">calcularArea()</text></g><!--class Retangulo--><g id="elem_Retangulo"><rect codeLine="10" fill="#F1F1F1" height="79.2813" id="Retangulo" rx="2.5" ry="2.5" style="stroke:#181818;stroke-width:0.5;" width="162" x="7" y="182.6406"/><ellipse cx="51.25" cy="198.6406" fill="#ADD1B2" rx="11" ry="11" style="stroke:#181818;stroke-width:1.0;"/><path d="M54.0156,194.5156 Q54.1719,194.2969 54.3594,194.1875 Q54.5469,194.0781 54.7656,194.0781 Q55.1406,194.0781 55.375,194.3438 Q55.6094,194.5938 55.6094,195.2031 L55.6094,196.6563 Q55.6094,197.2656 55.375,197.5313 Q55.1406,197.7969 54.7656,197.7969 Q54.4219,197.7969 54.2188,197.5938 Q54.0156,197.4063 53.9063,196.8906 Q53.8594,196.5313 53.6719,196.3438 Q53.3438,195.9688 52.7344,195.75 Q52.125,195.5313 51.5,195.5313 Q50.7344,195.5313 50.0938,195.8594 Q49.4688,196.1875 48.9688,196.9375 Q48.4844,197.6875 48.4844,198.7188 L48.4844,199.8125 Q48.4844,201.0469 49.375,201.875 Q50.2656,202.6875 51.8594,202.6875 Q52.7969,202.6875 53.4531,202.4375 Q53.8438,202.2813 54.2656,201.8438 Q54.5313,201.5781 54.6719,201.5 Q54.8281,201.4219 55.0313,201.4219 Q55.3594,201.4219 55.6094,201.6875 Q55.875,201.9375 55.875,202.2813 Q55.875,202.625 55.5313,203.0313 Q55.0313,203.6094 54.2344,203.9375 Q53.1563,204.3906 51.8594,204.3906 Q50.3438,204.3906 49.1406,203.7656 Q48.1563,203.2656 47.4688,202.2031 Q46.7813,201.125 46.7813,199.8438 L46.7813,198.6875 Q46.7813,197.3594 47.3906,196.2188 Q48.0156,195.0625 49.1094,194.4531 Q50.2031,193.8281 51.4375,193.8281 Q52.1719,193.8281 52.8125,194 Q53.4688,194.1563 54.0156,194.5156 Z " fill="#000000"/><text fill="#000000" font-family="sans-serif" font-size="14" lengthAdjust="spacing" textLength="65" x="71.75" y="203.4941">Retangulo</text><line style="stroke:#181818;stroke-width:0.5;" x1="8" x2="168" y1="214.6406" y2="214.6406"/><rect fill="none" height="6" style="stroke:#C82930;stroke-width:1.0;" width="6" x="15" y="224.9609"/><text fill="#000000" font-family="sans-serif" font-size="14" lengthAdjust="spacing" textLength="136" x="27" y="231.3145">double : comprimento</text><rect fill="none" height="6" style="stroke:#C82930;stroke-width:1.0;" width="6" x="15" y="240.6016"/><text fill="#000000" font-family="sans-serif" font-size="14" lengthAdjust="spacing" textLength="100" x="27" y="246.9551">double : largura</text><line style="stroke:#181818;stroke-width:0.5;" x1="8" x2="168" y1="253.9219" y2="253.9219"/></g><!--class Circulo--><g id="elem_Circulo"><rect codeLine="15" fill="#F1F1F1" height="63.6406" id="Circulo" rx="2.5" ry="2.5" style="stroke:#181818;stroke-width:0.5;" width="105" x="204.5" y="190.1406"/><ellipse cx="232.55" cy="206.1406" fill="#ADD1B2" rx="11" ry="11" style="stroke:#181818;stroke-width:1.0;"/><path d="M235.3156,202.0156 Q235.4719,201.7969 235.6594,201.6875 Q235.8469,201.5781 236.0656,201.5781 Q236.4406,201.5781 236.675,201.8438 Q236.9094,202.0938 236.9094,202.7031 L236.9094,204.1563 Q236.9094,204.7656 236.675,205.0313 Q236.4406,205.2969 236.0656,205.2969 Q235.7219,205.2969 235.5188,205.0938 Q235.3156,204.9063 235.2063,204.3906 Q235.1594,204.0313 234.9719,203.8438 Q234.6438,203.4688 234.0344,203.25 Q233.425,203.0313 232.8,203.0313 Q232.0344,203.0313 231.3938,203.3594 Q230.7688,203.6875 230.2688,204.4375 Q229.7844,205.1875 229.7844,206.2188 L229.7844,207.3125 Q229.7844,208.5469 230.675,209.375 Q231.5656,210.1875 233.1594,210.1875 Q234.0969,210.1875 234.7531,209.9375 Q235.1438,209.7813 235.5656,209.3438 Q235.8313,209.0781 235.9719,209 Q236.1281,208.9219 236.3313,208.9219 Q236.6594,208.9219 236.9094,209.1875 Q237.175,209.4375 237.175,209.7813 Q237.175,210.125 236.8313,210.5313 Q236.3313,211.1094 235.5344,211.4375 Q234.4563,211.8906 233.1594,211.8906 Q231.6438,211.8906 230.4406,211.2656 Q229.4563,210.7656 228.7688,209.7031 Q228.0813,208.625 228.0813,207.3438 L228.0813,206.1875 Q228.0813,204.8594 228.6906,203.7188 Q229.3156,202.5625 230.4094,201.9531 Q231.5031,201.3281 232.7375,201.3281 Q233.4719,201.3281 234.1125,201.5 Q234.7688,201.6563 235.3156,202.0156 Z " fill="#000000"/><text fill="#000000" font-family="sans-serif" font-size="14" lengthAdjust="spacing" textLength="44" x="249.45" y="210.9941">Circulo</text><line style="stroke:#181818;stroke-width:0.5;" x1="205.5" x2="308.5" y1="222.1406" y2="222.1406"/><rect fill="none" height="6" style="stroke:#C82930;stroke-width:1.0;" width="6" x="212.5" y="232.4609"/><text fill="#000000" font-family="sans-serif" font-size="14" lengthAdjust="spacing" textLength="79" x="224.5" y="238.8145">double : raio</text><line style="stroke:#181818;stroke-width:0.5;" x1="205.5" x2="308.5" y1="245.7813" y2="245.7813"/></g><!--reverse link Figura to Retangulo--><g id="link_Figura_Retangulo"><path codeLine="19" d="M137.7,140.0906 C128.98,154.3106 119.8,169.2806 111.74,182.4306 " fill="none" id="Figura-backto-Retangulo" style="stroke:#181818;stroke-width:1.0;"/><polygon fill="none" points="131.96,136.0606,148.38,122.6706,143.89,143.3806,131.96,136.0606" style="stroke:#181818;stroke-width:1.0;"/></g><!--reverse link Figura to Circulo--><g id="link_Figura_Circulo"><path codeLine="20" d="M206.56,139.8406 C217.13,156.8706 228.38,175.0106 237.56,189.8106 " fill="none" id="Figura-backto-Circulo" style="stroke:#181818;stroke-width:1.0;"/><polygon fill="none" points="200.5,143.3506,195.9,122.6706,212.4,135.9706,200.5,143.3506" style="stroke:#181818;stroke-width:1.0;"/></g><!--SRC=[NSux3i8m383XtQVm1WY5xXKB0d40u09k6eL8ULIECm5tfw6L2go__DbUtKM6t3RDu2bA2NwdKsYqfvnLxyWo1O2R4s_mM2EUfeWApyuMfWn0NHOcBVXXSt-0mgkmYnPRr8bXYvgyBfxum8RM6tW1JE1YXA8jFbNJfzADnwe90xjWegJlFFgwVj57n_hVChbK9wPNSFzKQhdoKsSDRm00]--></g></svg>