<?xml version="1.0" encoding="us-ascii" standalone="no"?><svg xmlns="http://www.w3.org/2000/svg" xmlns:xlink="http://www.w3.org/1999/xlink" contentStyleType="text/css" height="503px" preserveAspectRatio="none" style="width:563px;height:503px;background:#FFFFFF;" version="1.1" viewBox="0 0 563 503" width="563px" zoomAndPan="magnify"><defs/><g><text fill="#000000" font-family="sans-serif" font-size="14" font-weight="bold" lengthAdjust="spacing" textLength="192" x="178.5" y="22.6738">Class Diagram - Empregado</text><!--class Empregado--><g id="elem_Empregado"><rect codeLine="5" fill="#F1F1F1" height="157.4844" id="Empregado" rx="2.5" ry="2.5" style="stroke:#181818;stroke-width:0.5;" width="416" x="48.5" y="43.6406"/><ellipse cx="215.75" cy="59.6406" fill="#ADD1B2" rx="11" ry="11" style="stroke:#181818;stroke-width:1.0;"/><path d="M218.5156,55.5156 Q218.6719,55.2969 218.8594,55.1875 Q219.0469,55.0781 219.2656,55.0781 Q219.6406,55.0781 219.875,55.3438 Q220.1094,55.5938 220.1094,56.2031 L220.1094,57.6563 Q220.1094,58.2656 219.875,58.5313 Q219.6406,58.7969 219.2656,58.7969 Q218.9219,58.7969 218.7188,58.5938 Q218.5156,58.4063 218.4063,57.8906 Q218.3594,57.5313 218.1719,57.3438 Q217.8438,56.9688 217.2344,56.75 Q216.625,56.5313 216,56.5313 Q215.2344,56.5313 214.5938,56.8594 Q213.9688,57.1875 213.4688,57.9375 Q212.9844,58.6875 212.9844,59.7188 L212.9844,60.8125 Q212.9844,62.0469 213.875,62.875 Q214.7656,63.6875 216.3594,63.6875 Q217.2969,63.6875 217.9531,63.4375 Q218.3438,63.2813 218.7656,62.8438 Q219.0313,62.5781 219.1719,62.5 Q219.3281,62.4219 219.5313,62.4219 Q219.8594,62.4219 220.1094,62.6875 Q220.375,62.9375 220.375,63.2813 Q220.375,63.625 220.0313,64.0313 Q219.5313,64.6094 218.7344,64.9375 Q217.6563,65.3906 216.3594,65.3906 Q214.8438,65.3906 213.6406,64.7656 Q212.6563,64.2656 211.9688,63.2031 Q211.2813,62.125 211.2813,60.8438 L211.2813,59.6875 Q211.2813,58.3594 211.8906,57.2188 Q212.5156,56.0625 213.6094,55.4531 Q214.7031,54.8281 215.9375,54.8281 Q216.6719,54.8281 217.3125,55 Q217.9688,55.1563 218.5156,55.5156 Z " fill="#000000"/><text fill="#000000" font-family="sans-serif" font-size="14" lengthAdjust="spacing" textLength="73" x="236.25" y="64.4941">Empregado</text><line style="stroke:#181818;stroke-width:0.5;" x1="49.5" x2="463.5" y1="75.6406" y2="75.6406"/><rect fill="none" height="6" style="stroke:#C82930;stroke-width:1.0;" width="6" x="56.5" y="85.9609"/><text fill="#000000" font-family="sans-serif" font-size="14" lengthAdjust="spacing" textLength="136" x="68.5" y="92.3145">primeiroNome : String</text><rect fill="none" height="6" style="stroke:#C82930;stroke-width:1.0;" width="6" x="56.5" y="101.6016"/><text fill="#000000" font-family="sans-serif" font-size="14" lengthAdjust="spacing" textLength="122" x="68.5" y="107.9551">ultimoNome : String</text><rect fill="none" height="6" style="stroke:#C82930;stroke-width:1.0;" width="6" x="56.5" y="117.2422"/><text fill="#000000" font-family="sans-serif" font-size="14" lengthAdjust="spacing" textLength="125" x="68.5" y="123.5957">dataContrato : Data</text><rect fill="none" height="6" style="stroke:#C82930;stroke-width:1.0;" width="6" x="56.5" y="132.8828"/><text fill="#000000" font-family="sans-serif" font-size="14" lengthAdjust="spacing" textLength="135" x="68.5" y="139.2363">horaEntrada : Tempo</text><rect fill="none" height="6" style="stroke:#C82930;stroke-width:1.0;" width="6" x="56.5" y="148.5234"/><text fill="#000000" font-family="sans-serif" font-size="14" lengthAdjust="spacing" textLength="121" x="68.5" y="154.877">horaSaida : Tempo</text><line style="stroke:#181818;stroke-width:0.5;" x1="49.5" x2="463.5" y1="161.8438" y2="161.8438"/><ellipse cx="59.5" cy="175.1641" fill="#84BE84" rx="3" ry="3" style="stroke:#038048;stroke-width:1.0;"/><text fill="#000000" font-family="sans-serif" font-size="14" lengthAdjust="spacing" textLength="390" x="68.5" y="178.5176">calcularNumeroHorasSemanais (horaEntrada, horaSaida) : int</text><ellipse cx="59.5" cy="190.8047" fill="#84BE84" rx="3" ry="3" style="stroke:#038048;stroke-width:1.0;"/><text fill="#000000" font-family="sans-serif" font-size="14" lengthAdjust="spacing" textLength="305" x="68.5" y="194.1582">determinarTempoDeContrato(dataContrato) : int</text></g><!--class Data--><g id="elem_Data"><rect codeLine="15" fill="#F1F1F1" height="235.6875" id="Data" rx="2.5" ry="2.5" style="stroke:#181818;stroke-width:0.5;" width="207" x="7" y="260.6406"/><ellipse cx="91.25" cy="276.6406" fill="#ADD1B2" rx="11" ry="11" style="stroke:#181818;stroke-width:1.0;"/><path d="M94.0156,272.5156 Q94.1719,272.2969 94.3594,272.1875 Q94.5469,272.0781 94.7656,272.0781 Q95.1406,272.0781 95.375,272.3438 Q95.6094,272.5938 95.6094,273.2031 L95.6094,274.6563 Q95.6094,275.2656 95.375,275.5313 Q95.1406,275.7969 94.7656,275.7969 Q94.4219,275.7969 94.2188,275.5938 Q94.0156,275.4063 93.9063,274.8906 Q93.8594,274.5313 93.6719,274.3438 Q93.3438,273.9688 92.7344,273.75 Q92.125,273.5313 91.5,273.5313 Q90.7344,273.5313 90.0938,273.8594 Q89.4688,274.1875 88.9688,274.9375 Q88.4844,275.6875 88.4844,276.7188 L88.4844,277.8125 Q88.4844,279.0469 89.375,279.875 Q90.2656,280.6875 91.8594,280.6875 Q92.7969,280.6875 93.4531,280.4375 Q93.8438,280.2813 94.2656,279.8438 Q94.5313,279.5781 94.6719,279.5 Q94.8281,279.4219 95.0313,279.4219 Q95.3594,279.4219 95.6094,279.6875 Q95.875,279.9375 95.875,280.2813 Q95.875,280.625 95.5313,281.0313 Q95.0313,281.6094 94.2344,281.9375 Q93.1563,282.3906 91.8594,282.3906 Q90.3438,282.3906 89.1406,281.7656 Q88.1563,281.2656 87.4688,280.2031 Q86.7813,279.125 86.7813,277.8438 L86.7813,276.6875 Q86.7813,275.3594 87.3906,274.2188 Q88.0156,273.0625 89.1094,272.4531 Q90.2031,271.8281 91.4375,271.8281 Q92.1719,271.8281 92.8125,272 Q93.4688,272.1563 94.0156,272.5156 Z " fill="#000000"/><text fill="#000000" font-family="sans-serif" font-size="14" lengthAdjust="spacing" textLength="30" x="111.75" y="281.4941">Data</text><line style="stroke:#181818;stroke-width:0.5;" x1="8" x2="213" y1="292.6406" y2="292.6406"/><rect fill="none" height="6" style="stroke:#C82930;stroke-width:1.0;" width="6" x="15" y="302.9609"/><text fill="#000000" font-family="sans-serif" font-size="14" lengthAdjust="spacing" textLength="51" x="27" y="309.3145">ano : int</text><rect fill="none" height="6" style="stroke:#C82930;stroke-width:1.0;" width="6" x="15" y="318.6016"/><text fill="#000000" font-family="sans-serif" font-size="14" lengthAdjust="spacing" textLength="53" x="27" y="324.9551">mes : int</text><rect fill="none" height="6" style="stroke:#C82930;stroke-width:1.0;" width="6" x="15" y="334.2422"/><text fill="#000000" font-family="sans-serif" font-size="14" lengthAdjust="spacing" textLength="46" x="27" y="340.5957">dia : int</text><line style="stroke:#181818;stroke-width:0.5;" x1="8" x2="213" y1="347.5625" y2="347.5625"/><ellipse cx="18" cy="360.8828" fill="#84BE84" rx="3" ry="3" style="stroke:#038048;stroke-width:1.0;"/><text fill="#000000" font-family="sans-serif" font-size="14" lengthAdjust="spacing" textLength="180" x="27" y="364.2363">toAnoMesDiaString() : String</text><ellipse cx="18" cy="376.5234" fill="#84BE84" rx="3" ry="3" style="stroke:#038048;stroke-width:1.0;"/><text fill="#000000" font-family="sans-serif" font-size="14" lengthAdjust="spacing" textLength="148" x="27" y="379.877">diaDaSemana() : String</text><ellipse cx="18" cy="392.1641" fill="#84BE84" rx="3" ry="3" style="stroke:#038048;stroke-width:1.0;"/><text fill="#000000" font-family="sans-serif" font-size="14" lengthAdjust="spacing" textLength="172" x="27" y="395.5176">compareTo(outraData) : int</text><ellipse cx="18" cy="407.8047" fill="#84BE84" rx="3" ry="3" style="stroke:#038048;stroke-width:1.0;"/><text fill="#000000" font-family="sans-serif" font-size="14" lengthAdjust="spacing" textLength="181" x="27" y="411.1582">isMaior(outraData) : boolean</text><ellipse cx="18" cy="423.4453" fill="#84BE84" rx="3" ry="3" style="stroke:#038048;stroke-width:1.0;"/><text fill="#000000" font-family="sans-serif" font-size="14" lengthAdjust="spacing" textLength="159" x="27" y="426.7988">diferenca(outraData) : int</text><ellipse cx="18" cy="439.0859" fill="#84BE84" rx="3" ry="3" style="stroke:#038048;stroke-width:1.0;"/><text fill="#000000" font-family="sans-serif" font-size="14" lengthAdjust="spacing" textLength="181" x="27" y="442.4395">diferenca(ano, mes, dia) : int</text><ellipse cx="18" cy="454.7266" fill="#84BE84" rx="3" ry="3" style="stroke:#038048;stroke-width:1.0;"/><text fill="#000000" font-family="sans-serif" font-size="14" lengthAdjust="spacing" textLength="148" x="27" y="458.0801">isAnoBissexto(ano) : int</text><ellipse cx="18" cy="470.3672" fill="#84BE84" rx="3" ry="3" style="stroke:#038048;stroke-width:1.0;"/><text fill="#000000" font-family="sans-serif" font-size="14" lengthAdjust="spacing" textLength="112" x="27" y="473.7207">dataAtual() : Data</text><ellipse cx="18" cy="486.0078" fill="#84BE84" rx="3" ry="3" style="stroke:#038048;stroke-width:1.0;"/><text fill="#000000" font-family="sans-serif" font-size="14" lengthAdjust="spacing" textLength="73" x="27" y="489.3613">contaDias()</text></g><!--class Tempo--><g id="elem_Tempo"><rect codeLine="30" fill="#F1F1F1" height="235.6875" id="Tempo" rx="2.5" ry="2.5" style="stroke:#181818;stroke-width:0.5;" width="307" x="249" y="260.6406"/><ellipse cx="376.25" cy="276.6406" fill="#ADD1B2" rx="11" ry="11" style="stroke:#181818;stroke-width:1.0;"/><path d="M379.0156,272.5156 Q379.1719,272.2969 379.3594,272.1875 Q379.5469,272.0781 379.7656,272.0781 Q380.1406,272.0781 380.375,272.3438 Q380.6094,272.5938 380.6094,273.2031 L380.6094,274.6563 Q380.6094,275.2656 380.375,275.5313 Q380.1406,275.7969 379.7656,275.7969 Q379.4219,275.7969 379.2188,275.5938 Q379.0156,275.4063 378.9063,274.8906 Q378.8594,274.5313 378.6719,274.3438 Q378.3438,273.9688 377.7344,273.75 Q377.125,273.5313 376.5,273.5313 Q375.7344,273.5313 375.0938,273.8594 Q374.4688,274.1875 373.9688,274.9375 Q373.4844,275.6875 373.4844,276.7188 L373.4844,277.8125 Q373.4844,279.0469 374.375,279.875 Q375.2656,280.6875 376.8594,280.6875 Q377.7969,280.6875 378.4531,280.4375 Q378.8438,280.2813 379.2656,279.8438 Q379.5313,279.5781 379.6719,279.5 Q379.8281,279.4219 380.0313,279.4219 Q380.3594,279.4219 380.6094,279.6875 Q380.875,279.9375 380.875,280.2813 Q380.875,280.625 380.5313,281.0313 Q380.0313,281.6094 379.2344,281.9375 Q378.1563,282.3906 376.8594,282.3906 Q375.3438,282.3906 374.1406,281.7656 Q373.1563,281.2656 372.4688,280.2031 Q371.7813,279.125 371.7813,277.8438 L371.7813,276.6875 Q371.7813,275.3594 372.3906,274.2188 Q373.0156,273.0625 374.1094,272.4531 Q375.2031,271.8281 376.4375,271.8281 Q377.1719,271.8281 377.8125,272 Q378.4688,272.1563 379.0156,272.5156 Z " fill="#000000"/><text fill="#000000" font-family="sans-serif" font-size="14" lengthAdjust="spacing" textLength="44" x="396.75" y="281.4941">Tempo</text><line style="stroke:#181818;stroke-width:0.5;" x1="250" x2="555" y1="292.6406" y2="292.6406"/><rect fill="none" height="6" style="stroke:#C82930;stroke-width:1.0;" width="6" x="257" y="302.9609"/><text fill="#000000" font-family="sans-serif" font-size="14" lengthAdjust="spacing" textLength="63" x="269" y="309.3145">horas : int</text><rect fill="none" height="6" style="stroke:#C82930;stroke-width:1.0;" width="6" x="257" y="318.6016"/><text fill="#000000" font-family="sans-serif" font-size="14" lengthAdjust="spacing" textLength="76" x="269" y="324.9551">minutos : int</text><rect fill="none" height="6" style="stroke:#C82930;stroke-width:1.0;" width="6" x="257" y="334.2422"/><text fill="#000000" font-family="sans-serif" font-size="14" lengthAdjust="spacing" textLength="89" x="269" y="340.5957">segundos : int</text><line style="stroke:#181818;stroke-width:0.5;" x1="250" x2="555" y1="347.5625" y2="347.5625"/><ellipse cx="260" cy="360.8828" fill="#84BE84" rx="3" ry="3" style="stroke:#038048;stroke-width:1.0;"/><text fill="#000000" font-family="sans-serif" font-size="14" lengthAdjust="spacing" textLength="166" x="269" y="364.2363">toStringHHMMSS() : String</text><ellipse cx="260" cy="376.5234" fill="#84BE84" rx="3" ry="3" style="stroke:#038048;stroke-width:1.0;"/><text fill="#000000" font-family="sans-serif" font-size="14" lengthAdjust="spacing" textLength="186" x="269" y="379.877">compareTo(outroTempo) : int</text><ellipse cx="260" cy="392.1641" fill="#84BE84" rx="3" ry="3" style="stroke:#038048;stroke-width:1.0;"/><text fill="#000000" font-family="sans-serif" font-size="14" lengthAdjust="spacing" textLength="69" x="269" y="395.5176">tick() : void</text><ellipse cx="260" cy="407.8047" fill="#84BE84" rx="3" ry="3" style="stroke:#038048;stroke-width:1.0;"/><text fill="#000000" font-family="sans-serif" font-size="14" lengthAdjust="spacing" textLength="195" x="269" y="411.1582">isMaior(outroTempo) : boolean</text><ellipse cx="260" cy="423.4453" fill="#84BE84" rx="3" ry="3" style="stroke:#038048;stroke-width:1.0;"/><text fill="#000000" font-family="sans-serif" font-size="14" lengthAdjust="spacing" textLength="281" x="269" y="426.7988">isMaior(horas, minutos, segundos) : boolean</text><ellipse cx="260" cy="439.0859" fill="#84BE84" rx="3" ry="3" style="stroke:#038048;stroke-width:1.0;"/><text fill="#000000" font-family="sans-serif" font-size="14" lengthAdjust="spacing" textLength="261" x="269" y="442.4395">diferencaEmSegundos (outroTempo) : int</text><ellipse cx="260" cy="454.7266" fill="#84BE84" rx="3" ry="3" style="stroke:#038048;stroke-width:1.0;"/><text fill="#000000" font-family="sans-serif" font-size="14" lengthAdjust="spacing" textLength="270" x="269" y="458.0801">diferencaEmTempo (outroTempo) : Tempo</text><ellipse cx="260" cy="470.3672" fill="#84BE84" rx="3" ry="3" style="stroke:#038048;stroke-width:1.0;"/><text fill="#000000" font-family="sans-serif" font-size="14" lengthAdjust="spacing" textLength="137" x="269" y="473.7207">tempoAtual() : Tempo</text><ellipse cx="260" cy="486.0078" fill="#84BE84" rx="3" ry="3" style="stroke:#038048;stroke-width:1.0;"/><text fill="#000000" font-family="sans-serif" font-size="14" lengthAdjust="spacing" textLength="113" x="269" y="489.3613">toSegundos() : int</text></g><!--link Empregado to Data--><g id="link_Empregado_Data"><path codeLine="45" d="M211.9,200.8806 C201.93,218.2706 191.12,237.1106 180.4,255.8006 " fill="none" id="Empregado-to-Data" style="stroke:#181818;stroke-width:1.0;"/><polygon fill="#181818" points="177.67,260.5506,185.6123,254.7266,180.1538,256.2112,178.6692,250.7526,177.67,260.5506" style="stroke:#181818;stroke-width:1.0;"/></g><!--link Empregado to Tempo--><g id="link_Empregado_Tempo"><path codeLine="46" d="M301.1,200.8806 C311.07,218.2706 321.88,237.1106 332.6,255.8006 " fill="none" id="Empregado-to-Tempo" style="stroke:#181818;stroke-width:1.0;"/><polygon fill="#181818" points="335.33,260.5506,334.3308,250.7526,332.8462,256.2112,327.3877,254.7266,335.33,260.5506" style="stroke:#181818;stroke-width:1.0;"/></g><!--SRC=[VPFFJiCm3CRlVOhSw4JBxXoGW4tQPRjqBs1QCoAIk4fSX8HuTvnqRJh-dTP-_kpy_AMxUc7km-rwtHjmF5Xpqv9TjmP2g3iD9m-sA8wQ3Qh7AAhDAAfQRMtlyGGT5SLOceMFebQzrnQrfmDPLBUgOQ_TIVJ1iBO_r0uO7icn1oRHD_8gwWjvs4Qn0n6FQ7iwgmteXNQjMZ3jOC0V1ekUTk883Lfme8Cg5sEgtBsITkrOcZjaz5Oxy6dS1YUISear-J-dTIDat1GSdKkriXZcPublFeBftj4UWwGtxbokylhNqRg14VYo89VHWySZbJG8HJmoS-km1qt-ilH4P11S6lgC7bqBl_Ncek1NaRkA5ClXGloWGy1t2K9CYrwPTCy3cCIQxYgIEWPPBvIh757Ay-DyPpaPoNfWoky1JuFhPY76DIQms-ttJVDV99IEo6oiszVaVoFTVSieUtD8Kpq1LXDPDIFz4UdMDXFphnWBOwfyTqtVBSVVdEKiqpI-N7nsy_zBrVNTcFkbDBP_0G00]--></g></svg>