<?xml version="1.0" encoding="us-ascii" standalone="no"?>
<svg xmlns="http://www.w3.org/2000/svg" contentStyleType="text/css" height="300px" preserveAspectRatio="none"
     style="width:772px;height:300px;background:#FFFFFF;" version="1.1" viewBox="0 0 772 300" width="772px"
     zoomAndPan="magnify"><defs/><g><text fill="#000000" font-family="sans-serif" font-size="14" font-weight="bold" lengthAdjust="spacing" textLength="194" x="282.25" y="22.6738">Class Diagram Vencimentos</text><!--class Contribuinte--><g id="elem_Contribuinte"><rect codeLine="12" fill="#F1F1F1" height="126.2031" id="Contribuinte" rx="2.5" ry="2.5" style="stroke:#181818;stroke-width:0.5;" width="184" x="281" y="43.6406"/><ellipse cx="330.25" cy="59.6406" fill="#A9DCDF" rx="11" ry="11" style="stroke:#181818;stroke-width:1.0;"/><path d="M332.4375,61.4063 L328.2969,61.4063 L327.875,62.4375 L328.2969,62.4375 Q328.9063,62.4375 329.1719,62.6719 Q329.4375,62.9063 329.4375,63.2969 Q329.4375,63.6719 329.1719,63.9063 Q328.9063,64.1406 328.2969,64.1406 L326,64.1406 Q325.3906,64.1406 325.1406,63.9063 Q324.875,63.6719 324.875,63.2813 Q324.875,62.9063 325.1563,62.6719 Q325.4219,62.4219 326.0469,62.4375 L328.7188,55.7813 L327.6094,55.7813 Q327,55.7813 326.7344,55.5469 Q326.4688,55.3125 326.4688,54.9219 Q326.4688,54.5469 326.7344,54.3125 Q327,54.0781 327.6094,54.0781 L331.2813,54.0781 L334.6719,62.4375 Q335.2656,62.4375 335.4531,62.5781 Q335.8438,62.8438 335.8438,63.2969 Q335.8438,63.6719 335.5781,63.9063 Q335.3281,64.1406 334.7188,64.1406 L332.4219,64.1406 Q331.8125,64.1406 331.5469,63.9063 Q331.2813,63.6719 331.2813,63.2813 Q331.2813,62.9063 331.5469,62.6719 Q331.8125,62.4375 332.4219,62.4375 L332.8438,62.4375 L332.4375,61.4063 Z M331.7188,59.7031 L330.3594,56.3281 L328.9844,59.7031 L331.7188,59.7031 Z " fill="#000000"/><text fill="#000000" font-family="sans-serif" font-size="14" font-style="italic" lengthAdjust="spacing" textLength="77" x="350.75" y="64.4941">Contribuinte</text><line style="stroke:#181818;stroke-width:0.5;" x1="282" x2="464" y1="75.6406" y2="75.6406"/><text fill="#000000" font-family="sans-serif" font-size="14" lengthAdjust="spacing" textLength="89" x="287" y="92.3145">-String : nome</text><text fill="#000000" font-family="sans-serif" font-size="14" lengthAdjust="spacing" textLength="102" x="287" y="107.9551">-String : morada</text><text fill="#000000" font-family="sans-serif" font-size="14" lengthAdjust="spacing" textLength="172" x="287" y="123.5957">-float : rendimentoTrabalho</text><text fill="#000000" font-family="sans-serif" font-size="14" lengthAdjust="spacing" textLength="167" x="287" y="139.2363">-float : outrosRendimentos</text><line style="stroke:#181818;stroke-width:0.5;" x1="282" x2="464" y1="146.2031" y2="146.2031"/><text fill="#000000" font-family="sans-serif" font-size="14" lengthAdjust="spacing" textLength="149" x="287" y="162.877">+calcularValorImposto()</text></g><!--class Reformado--><g id="elem_Reformado"><rect codeLine="20" fill="#F1F1F1" height="48" id="Reformado" rx="2.5" ry="2.5" style="stroke:#181818;stroke-width:0.5;" width="102" x="7" y="237.6406"/><ellipse cx="22" cy="253.6406" fill="#ADD1B2" rx="11" ry="11" style="stroke:#181818;stroke-width:1.0;"/><path d="M24.7656,249.5156 Q24.9219,249.2969 25.1094,249.1875 Q25.2969,249.0781 25.5156,249.0781 Q25.8906,249.0781 26.125,249.3438 Q26.3594,249.5938 26.3594,250.2031 L26.3594,251.6563 Q26.3594,252.2656 26.125,252.5313 Q25.8906,252.7969 25.5156,252.7969 Q25.1719,252.7969 24.9688,252.5938 Q24.7656,252.4063 24.6563,251.8906 Q24.6094,251.5313 24.4219,251.3438 Q24.0938,250.9688 23.4844,250.75 Q22.875,250.5313 22.25,250.5313 Q21.4844,250.5313 20.8438,250.8594 Q20.2188,251.1875 19.7188,251.9375 Q19.2344,252.6875 19.2344,253.7188 L19.2344,254.8125 Q19.2344,256.0469 20.125,256.875 Q21.0156,257.6875 22.6094,257.6875 Q23.5469,257.6875 24.2031,257.4375 Q24.5938,257.2813 25.0156,256.8438 Q25.2813,256.5781 25.4219,256.5 Q25.5781,256.4219 25.7813,256.4219 Q26.1094,256.4219 26.3594,256.6875 Q26.625,256.9375 26.625,257.2813 Q26.625,257.625 26.2813,258.0313 Q25.7813,258.6094 24.9844,258.9375 Q23.9063,259.3906 22.6094,259.3906 Q21.0938,259.3906 19.8906,258.7656 Q18.9063,258.2656 18.2188,257.2031 Q17.5313,256.125 17.5313,254.8438 L17.5313,253.6875 Q17.5313,252.3594 18.1406,251.2188 Q18.7656,250.0625 19.8594,249.4531 Q20.9531,248.8281 22.1875,248.8281 Q22.9219,248.8281 23.5625,249 Q24.2188,249.1563 24.7656,249.5156 Z " fill="#000000"/><text fill="#000000" font-family="sans-serif" font-size="14" lengthAdjust="spacing" textLength="70" x="36" y="258.4941">Reformado</text><line style="stroke:#181818;stroke-width:0.5;" x1="8" x2="108" y1="269.6406" y2="269.6406"/><line style="stroke:#181818;stroke-width:0.5;" x1="8" x2="108" y1="277.6406" y2="277.6406"/></g><!--class TrabalhadorPorContaOutrem--><g id="elem_TrabalhadorPorContaOutrem"><rect codeLine="23" fill="#F1F1F1" height="63.6406" id="TrabalhadorPorContaOutrem" rx="2.5" ry="2.5" style="stroke:#181818;stroke-width:0.5;" width="217" x="144.5" y="229.6406"/><ellipse cx="159.5" cy="245.6406" fill="#ADD1B2" rx="11" ry="11" style="stroke:#181818;stroke-width:1.0;"/><path d="M162.2656,241.5156 Q162.4219,241.2969 162.6094,241.1875 Q162.7969,241.0781 163.0156,241.0781 Q163.3906,241.0781 163.625,241.3438 Q163.8594,241.5938 163.8594,242.2031 L163.8594,243.6563 Q163.8594,244.2656 163.625,244.5313 Q163.3906,244.7969 163.0156,244.7969 Q162.6719,244.7969 162.4688,244.5938 Q162.2656,244.4063 162.1563,243.8906 Q162.1094,243.5313 161.9219,243.3438 Q161.5938,242.9688 160.9844,242.75 Q160.375,242.5313 159.75,242.5313 Q158.9844,242.5313 158.3438,242.8594 Q157.7188,243.1875 157.2188,243.9375 Q156.7344,244.6875 156.7344,245.7188 L156.7344,246.8125 Q156.7344,248.0469 157.625,248.875 Q158.5156,249.6875 160.1094,249.6875 Q161.0469,249.6875 161.7031,249.4375 Q162.0938,249.2813 162.5156,248.8438 Q162.7813,248.5781 162.9219,248.5 Q163.0781,248.4219 163.2813,248.4219 Q163.6094,248.4219 163.8594,248.6875 Q164.125,248.9375 164.125,249.2813 Q164.125,249.625 163.7813,250.0313 Q163.2813,250.6094 162.4844,250.9375 Q161.4063,251.3906 160.1094,251.3906 Q158.5938,251.3906 157.3906,250.7656 Q156.4063,250.2656 155.7188,249.2031 Q155.0313,248.125 155.0313,246.8438 L155.0313,245.6875 Q155.0313,244.3594 155.6406,243.2188 Q156.2656,242.0625 157.3594,241.4531 Q158.4531,240.8281 159.6875,240.8281 Q160.4219,240.8281 161.0625,241 Q161.7188,241.1563 162.2656,241.5156 Z " fill="#000000"/><text fill="#000000" font-family="sans-serif" font-size="14" lengthAdjust="spacing" textLength="185" x="173.5" y="250.4941">TrabalhadorPorContaOutrem</text><line style="stroke:#181818;stroke-width:0.5;" x1="145.5" x2="360.5" y1="261.6406" y2="261.6406"/><text fill="#000000" font-family="sans-serif" font-size="14" lengthAdjust="spacing" textLength="145" x="150.5" y="278.3145">-String : nomeEmpresa</text><line style="stroke:#181818;stroke-width:0.5;" x1="145.5" x2="360.5" y1="285.2813" y2="285.2813"/></g><!--class TrabalhadorContaPropria--><g id="elem_TrabalhadorContaPropria"><rect codeLine="27" fill="#F1F1F1" height="63.6406" id="TrabalhadorContaPropria" rx="2.5" ry="2.5" style="stroke:#181818;stroke-width:0.5;" width="194" x="397" y="229.6406"/><ellipse cx="412" cy="245.6406" fill="#ADD1B2" rx="11" ry="11" style="stroke:#181818;stroke-width:1.0;"/><path d="M414.7656,241.5156 Q414.9219,241.2969 415.1094,241.1875 Q415.2969,241.0781 415.5156,241.0781 Q415.8906,241.0781 416.125,241.3438 Q416.3594,241.5938 416.3594,242.2031 L416.3594,243.6563 Q416.3594,244.2656 416.125,244.5313 Q415.8906,244.7969 415.5156,244.7969 Q415.1719,244.7969 414.9688,244.5938 Q414.7656,244.4063 414.6563,243.8906 Q414.6094,243.5313 414.4219,243.3438 Q414.0938,242.9688 413.4844,242.75 Q412.875,242.5313 412.25,242.5313 Q411.4844,242.5313 410.8438,242.8594 Q410.2188,243.1875 409.7188,243.9375 Q409.2344,244.6875 409.2344,245.7188 L409.2344,246.8125 Q409.2344,248.0469 410.125,248.875 Q411.0156,249.6875 412.6094,249.6875 Q413.5469,249.6875 414.2031,249.4375 Q414.5938,249.2813 415.0156,248.8438 Q415.2813,248.5781 415.4219,248.5 Q415.5781,248.4219 415.7813,248.4219 Q416.1094,248.4219 416.3594,248.6875 Q416.625,248.9375 416.625,249.2813 Q416.625,249.625 416.2813,250.0313 Q415.7813,250.6094 414.9844,250.9375 Q413.9063,251.3906 412.6094,251.3906 Q411.0938,251.3906 409.8906,250.7656 Q408.9063,250.2656 408.2188,249.2031 Q407.5313,248.125 407.5313,246.8438 L407.5313,245.6875 Q407.5313,244.3594 408.1406,243.2188 Q408.7656,242.0625 409.8594,241.4531 Q410.9531,240.8281 412.1875,240.8281 Q412.9219,240.8281 413.5625,241 Q414.2188,241.1563 414.7656,241.5156 Z " fill="#000000"/><text fill="#000000" font-family="sans-serif" font-size="14" lengthAdjust="spacing" textLength="162" x="426" y="250.4941">TrabalhadorContaPropria</text><line style="stroke:#181818;stroke-width:0.5;" x1="398" x2="590" y1="261.6406" y2="261.6406"/><text fill="#000000" font-family="sans-serif" font-size="14" lengthAdjust="spacing" textLength="112" x="403" y="278.3145">-String : profissao</text><line style="stroke:#181818;stroke-width:0.5;" x1="398" x2="590" y1="285.2813" y2="285.2813"/></g><!--class Desempregado--><g id="elem_Desempregado"><rect codeLine="31" fill="#F1F1F1" height="63.6406" id="Desempregado" rx="2.5" ry="2.5" style="stroke:#181818;stroke-width:0.5;" width="139" x="626.5" y="229.6406"/><ellipse cx="646" cy="245.6406" fill="#ADD1B2" rx="11" ry="11" style="stroke:#181818;stroke-width:1.0;"/><path d="M648.7656,241.5156 Q648.9219,241.2969 649.1094,241.1875 Q649.2969,241.0781 649.5156,241.0781 Q649.8906,241.0781 650.125,241.3438 Q650.3594,241.5938 650.3594,242.2031 L650.3594,243.6563 Q650.3594,244.2656 650.125,244.5313 Q649.8906,244.7969 649.5156,244.7969 Q649.1719,244.7969 648.9688,244.5938 Q648.7656,244.4063 648.6563,243.8906 Q648.6094,243.5313 648.4219,243.3438 Q648.0938,242.9688 647.4844,242.75 Q646.875,242.5313 646.25,242.5313 Q645.4844,242.5313 644.8438,242.8594 Q644.2188,243.1875 643.7188,243.9375 Q643.2344,244.6875 643.2344,245.7188 L643.2344,246.8125 Q643.2344,248.0469 644.125,248.875 Q645.0156,249.6875 646.6094,249.6875 Q647.5469,249.6875 648.2031,249.4375 Q648.5938,249.2813 649.0156,248.8438 Q649.2813,248.5781 649.4219,248.5 Q649.5781,248.4219 649.7813,248.4219 Q650.1094,248.4219 650.3594,248.6875 Q650.625,248.9375 650.625,249.2813 Q650.625,249.625 650.2813,250.0313 Q649.7813,250.6094 648.9844,250.9375 Q647.9063,251.3906 646.6094,251.3906 Q645.0938,251.3906 643.8906,250.7656 Q642.9063,250.2656 642.2188,249.2031 Q641.5313,248.125 641.5313,246.8438 L641.5313,245.6875 Q641.5313,244.3594 642.1406,243.2188 Q642.7656,242.0625 643.8594,241.4531 Q644.9531,240.8281 646.1875,240.8281 Q646.9219,240.8281 647.5625,241 Q648.2188,241.1563 648.7656,241.5156 Z " fill="#000000"/><text fill="#000000" font-family="sans-serif" font-size="14" lengthAdjust="spacing" textLength="97" x="661" y="250.4941">Desempregado</text><line style="stroke:#181818;stroke-width:0.5;" x1="627.5" x2="764.5" y1="261.6406" y2="261.6406"/><text fill="#000000" font-family="sans-serif" font-size="14" lengthAdjust="spacing" textLength="127" x="632.5" y="278.3145">-int : nMesesParado</text><line style="stroke:#181818;stroke-width:0.5;" x1="627.5" x2="764.5" y1="285.2813" y2="285.2813"/></g><!--reverse link Contribuinte to Reformado--><g id="link_Contribuinte_Reformado"><path codeLine="35" d="M262.4,161.3606 C208.75,187.4206 147.11,217.3606 105.67,237.4806 " fill="none" id="Contribuinte-backto-Reformado" style="stroke:#181818;stroke-width:1.0;"/><polygon fill="none" points="259.57,154.9506,280.62,152.5106,265.69,167.5506,259.57,154.9506" style="stroke:#181818;stroke-width:1.0;"/></g><!--reverse link Contribuinte to TrabalhadorPorContaOutrem--><g id="link_Contribuinte_TrabalhadorPorContaOutrem"><path codeLine="36" d="M311.61,185.9206 C299.48,201.3806 287.42,216.7506 277.43,229.4906 " fill="none" id="Contribuinte-backto-TrabalhadorPorContaOutrem" style="stroke:#181818;stroke-width:1.0;"/><polygon fill="none" points="306.34,181.2906,324.19,169.8706,317.36,189.9306,306.34,181.2906" style="stroke:#181818;stroke-width:1.0;"/></g><!--reverse link Contribuinte to TrabalhadorContaPropria--><g id="link_Contribuinte_TrabalhadorContaPropria"><path codeLine="37" d="M434.91,185.9206 C447.14,201.3806 459.29,216.7506 469.37,229.4906 " fill="none" id="Contribuinte-backto-TrabalhadorContaPropria" style="stroke:#181818;stroke-width:1.0;"/><polygon fill="none" points="429.13,189.9006,422.22,169.8706,440.11,181.2206,429.13,189.9006" style="stroke:#181818;stroke-width:1.0;"/></g><!--reverse link Contribuinte to Desempregado--><g id="link_Contribuinte_Desempregado"><path codeLine="38" d="M483.49,159.9806 C532.39,183.1406 588.25,209.6006 630.43,229.5806 " fill="none" id="Contribuinte-backto-Desempregado" style="stroke:#181818;stroke-width:1.0;"/><polygon fill="none" points="480.2,166.1706,465.13,151.2806,486.2,153.5106,480.2,166.1706" style="stroke:#181818;stroke-width:1.0;"/></g><!--SRC=[VL0zJyCm4DtzAxm1GfMO4Gjg6JeWghRgVdKkgLNRPzrTX4hXl-C4H58H6Fq-pk-zApdwb84XsaY9t84febLkqGnC1dU41ZTw2cWPdK9gmbWW1wZerQV6rX1ap0IVK4yPRQPmwXxcQe8aLZ8ZbmiWygZAVjygBXsbZNz3UsVCrcl9CEzuk_3GTEeT9kSZ9YKn1lQY34xjd5BlzqdnREpCRigp9BotgLIy028nLD11TI3GWZ2cwklabc4FuK1ZbbfbalMFHeozjGw2QmFm3WBnCcOIfUiRys5CtyQkiIQEPQVpW7qVBo2lYBl4y59kO_mT-2bcHe59RszSCMNsSEdCJBKN0Hfy2nJiRZLzb28k0tL_F1TSLcN-gXUFvxCFxxFPK622-xF8_zfny0dbEAhv1000]--></g></svg>