<?xml version="1.0" encoding="us-ascii" standalone="no"?><svg xmlns="http://www.w3.org/2000/svg" xmlns:xlink="http://www.w3.org/1999/xlink" contentStyleType="text/css" height="628px" preserveAspectRatio="none" style="width:452px;height:628px;background:#FFFFFF;" version="1.1" viewBox="0 0 452 628" width="452px" zoomAndPan="magnify"><defs/><g><text fill="#000000" font-family="sans-serif" font-size="14" font-weight="bold" lengthAdjust="spacing" textLength="288" x="75" y="22.6738">Class Diagram - Autom&#243;vel com matr&#237;cula</text><!--class Automovel--><g id="elem_Automovel"><rect codeLine="5" fill="#F1F1F1" height="94.9219" id="Automovel" rx="2.5" ry="2.5" style="stroke:#181818;stroke-width:0.5;" width="158" x="96" y="43.6406"/><ellipse cx="138" cy="59.6406" fill="#ADD1B2" rx="11" ry="11" style="stroke:#181818;stroke-width:1.0;"/><path d="M140.7656,55.5156 Q140.9219,55.2969 141.1094,55.1875 Q141.2969,55.0781 141.5156,55.0781 Q141.8906,55.0781 142.125,55.3438 Q142.3594,55.5938 142.3594,56.2031 L142.3594,57.6563 Q142.3594,58.2656 142.125,58.5313 Q141.8906,58.7969 141.5156,58.7969 Q141.1719,58.7969 140.9688,58.5938 Q140.7656,58.4063 140.6563,57.8906 Q140.6094,57.5313 140.4219,57.3438 Q140.0938,56.9688 139.4844,56.75 Q138.875,56.5313 138.25,56.5313 Q137.4844,56.5313 136.8438,56.8594 Q136.2188,57.1875 135.7188,57.9375 Q135.2344,58.6875 135.2344,59.7188 L135.2344,60.8125 Q135.2344,62.0469 136.125,62.875 Q137.0156,63.6875 138.6094,63.6875 Q139.5469,63.6875 140.2031,63.4375 Q140.5938,63.2813 141.0156,62.8438 Q141.2813,62.5781 141.4219,62.5 Q141.5781,62.4219 141.7813,62.4219 Q142.1094,62.4219 142.3594,62.6875 Q142.625,62.9375 142.625,63.2813 Q142.625,63.625 142.2813,64.0313 Q141.7813,64.6094 140.9844,64.9375 Q139.9063,65.3906 138.6094,65.3906 Q137.0938,65.3906 135.8906,64.7656 Q134.9063,64.2656 134.2188,63.2031 Q133.5313,62.125 133.5313,60.8438 L133.5313,59.6875 Q133.5313,58.3594 134.1406,57.2188 Q134.7656,56.0625 135.8594,55.4531 Q136.9531,54.8281 138.1875,54.8281 Q138.9219,54.8281 139.5625,55 Q140.2188,55.1563 140.7656,55.5156 Z " fill="#000000"/><text fill="#000000" font-family="sans-serif" font-size="14" lengthAdjust="spacing" textLength="66" x="158" y="64.4941">Automovel</text><line style="stroke:#181818;stroke-width:0.5;" x1="97" x2="253" y1="75.6406" y2="75.6406"/><rect fill="none" height="6" style="stroke:#C82930;stroke-width:1.0;" width="6" x="104" y="85.9609"/><text fill="#000000" font-family="sans-serif" font-size="14" lengthAdjust="spacing" textLength="88" x="116" y="92.3145">marca : String</text><rect fill="none" height="6" style="stroke:#C82930;stroke-width:1.0;" width="6" x="104" y="101.6016"/><text fill="#000000" font-family="sans-serif" font-size="14" lengthAdjust="spacing" textLength="132" x="116" y="107.9551">propriet&#225;rio : Pessoa</text><rect fill="none" height="6" style="stroke:#C82930;stroke-width:1.0;" width="6" x="104" y="117.2422"/><text fill="#000000" font-family="sans-serif" font-size="14" lengthAdjust="spacing" textLength="126" x="116" y="123.5957">matricula : Matricula</text><line style="stroke:#181818;stroke-width:0.5;" x1="97" x2="253" y1="130.5625" y2="130.5625"/></g><!--class Pessoa--><g id="elem_Pessoa"><rect codeLine="11" fill="#F1F1F1" height="94.9219" id="Pessoa" rx="2.5" ry="2.5" style="stroke:#181818;stroke-width:0.5;" width="198" x="7" y="214.6406"/><ellipse cx="78.25" cy="230.6406" fill="#ADD1B2" rx="11" ry="11" style="stroke:#181818;stroke-width:1.0;"/><path d="M81.0156,226.5156 Q81.1719,226.2969 81.3594,226.1875 Q81.5469,226.0781 81.7656,226.0781 Q82.1406,226.0781 82.375,226.3438 Q82.6094,226.5938 82.6094,227.2031 L82.6094,228.6563 Q82.6094,229.2656 82.375,229.5313 Q82.1406,229.7969 81.7656,229.7969 Q81.4219,229.7969 81.2188,229.5938 Q81.0156,229.4063 80.9063,228.8906 Q80.8594,228.5313 80.6719,228.3438 Q80.3438,227.9688 79.7344,227.75 Q79.125,227.5313 78.5,227.5313 Q77.7344,227.5313 77.0938,227.8594 Q76.4688,228.1875 75.9688,228.9375 Q75.4844,229.6875 75.4844,230.7188 L75.4844,231.8125 Q75.4844,233.0469 76.375,233.875 Q77.2656,234.6875 78.8594,234.6875 Q79.7969,234.6875 80.4531,234.4375 Q80.8438,234.2813 81.2656,233.8438 Q81.5313,233.5781 81.6719,233.5 Q81.8281,233.4219 82.0313,233.4219 Q82.3594,233.4219 82.6094,233.6875 Q82.875,233.9375 82.875,234.2813 Q82.875,234.625 82.5313,235.0313 Q82.0313,235.6094 81.2344,235.9375 Q80.1563,236.3906 78.8594,236.3906 Q77.3438,236.3906 76.1406,235.7656 Q75.1563,235.2656 74.4688,234.2031 Q73.7813,233.125 73.7813,231.8438 L73.7813,230.6875 Q73.7813,229.3594 74.3906,228.2188 Q75.0156,227.0625 76.1094,226.4531 Q77.2031,225.8281 78.4375,225.8281 Q79.1719,225.8281 79.8125,226 Q80.4688,226.1563 81.0156,226.5156 Z " fill="#000000"/><text fill="#000000" font-family="sans-serif" font-size="14" lengthAdjust="spacing" textLength="47" x="98.75" y="235.4941">Pessoa</text><line style="stroke:#181818;stroke-width:0.5;" x1="8" x2="204" y1="246.6406" y2="246.6406"/><rect fill="none" height="6" style="stroke:#C82930;stroke-width:1.0;" width="6" x="15" y="256.9609"/><text fill="#000000" font-family="sans-serif" font-size="14" lengthAdjust="spacing" textLength="84" x="27" y="263.3145">nome : String</text><rect fill="none" height="6" style="stroke:#C82930;stroke-width:1.0;" width="6" x="15" y="272.6016"/><text fill="#000000" font-family="sans-serif" font-size="14" lengthAdjust="spacing" textLength="64" x="27" y="278.9551">idCivil : int</text><line style="stroke:#181818;stroke-width:0.5;" x1="8" x2="204" y1="285.9219" y2="285.9219"/><ellipse cx="18" cy="299.2422" fill="#84BE84" rx="3" ry="3" style="stroke:#038048;stroke-width:1.0;"/><text fill="#000000" font-family="sans-serif" font-size="14" lengthAdjust="spacing" textLength="172" x="27" y="302.5957">equals(Object outroObjeto)</text></g><!--class Matricula--><g id="elem_Matricula"><rect codeLine="17" fill="#F1F1F1" height="79.2813" id="Matricula" rx="2.5" ry="2.5" style="stroke:#181818;stroke-width:0.5;" width="144" x="240" y="222.6406"/><ellipse cx="279.75" cy="238.6406" fill="#ADD1B2" rx="11" ry="11" style="stroke:#181818;stroke-width:1.0;"/><path d="M282.5156,234.5156 Q282.6719,234.2969 282.8594,234.1875 Q283.0469,234.0781 283.2656,234.0781 Q283.6406,234.0781 283.875,234.3438 Q284.1094,234.5938 284.1094,235.2031 L284.1094,236.6563 Q284.1094,237.2656 283.875,237.5313 Q283.6406,237.7969 283.2656,237.7969 Q282.9219,237.7969 282.7188,237.5938 Q282.5156,237.4063 282.4063,236.8906 Q282.3594,236.5313 282.1719,236.3438 Q281.8438,235.9688 281.2344,235.75 Q280.625,235.5313 280,235.5313 Q279.2344,235.5313 278.5938,235.8594 Q277.9688,236.1875 277.4688,236.9375 Q276.9844,237.6875 276.9844,238.7188 L276.9844,239.8125 Q276.9844,241.0469 277.875,241.875 Q278.7656,242.6875 280.3594,242.6875 Q281.2969,242.6875 281.9531,242.4375 Q282.3438,242.2813 282.7656,241.8438 Q283.0313,241.5781 283.1719,241.5 Q283.3281,241.4219 283.5313,241.4219 Q283.8594,241.4219 284.1094,241.6875 Q284.375,241.9375 284.375,242.2813 Q284.375,242.625 284.0313,243.0313 Q283.5313,243.6094 282.7344,243.9375 Q281.6563,244.3906 280.3594,244.3906 Q278.8438,244.3906 277.6406,243.7656 Q276.6563,243.2656 275.9688,242.2031 Q275.2813,241.125 275.2813,239.8438 L275.2813,238.6875 Q275.2813,237.3594 275.8906,236.2188 Q276.5156,235.0625 277.6094,234.4531 Q278.7031,233.8281 279.9375,233.8281 Q280.6719,233.8281 281.3125,234 Q281.9688,234.1563 282.5156,234.5156 Z " fill="#000000"/><text fill="#000000" font-family="sans-serif" font-size="14" lengthAdjust="spacing" textLength="57" x="299.25" y="243.4941">Matricula</text><line style="stroke:#181818;stroke-width:0.5;" x1="241" x2="383" y1="254.6406" y2="254.6406"/><rect fill="none" height="6" style="stroke:#C82930;stroke-width:1.0;" width="6" x="248" y="264.9609"/><text fill="#000000" font-family="sans-serif" font-size="14" lengthAdjust="spacing" textLength="106" x="260" y="271.3145">matricula : String</text><rect fill="none" height="6" style="stroke:#C82930;stroke-width:1.0;" width="6" x="248" y="280.6016"/><text fill="#000000" font-family="sans-serif" font-size="14" lengthAdjust="spacing" textLength="118" x="260" y="286.9551">dataRegisto : Data</text><line style="stroke:#181818;stroke-width:0.5;" x1="241" x2="383" y1="293.9219" y2="293.9219"/></g><!--class Data--><g id="elem_Data"><rect codeLine="22" fill="#F1F1F1" height="235.6875" id="Data" rx="2.5" ry="2.5" style="stroke:#181818;stroke-width:0.5;" width="266" x="179" y="385.6406"/><ellipse cx="292.75" cy="401.6406" fill="#ADD1B2" rx="11" ry="11" style="stroke:#181818;stroke-width:1.0;"/><path d="M295.5156,397.5156 Q295.6719,397.2969 295.8594,397.1875 Q296.0469,397.0781 296.2656,397.0781 Q296.6406,397.0781 296.875,397.3438 Q297.1094,397.5938 297.1094,398.2031 L297.1094,399.6563 Q297.1094,400.2656 296.875,400.5313 Q296.6406,400.7969 296.2656,400.7969 Q295.9219,400.7969 295.7188,400.5938 Q295.5156,400.4063 295.4063,399.8906 Q295.3594,399.5313 295.1719,399.3438 Q294.8438,398.9688 294.2344,398.75 Q293.625,398.5313 293,398.5313 Q292.2344,398.5313 291.5938,398.8594 Q290.9688,399.1875 290.4688,399.9375 Q289.9844,400.6875 289.9844,401.7188 L289.9844,402.8125 Q289.9844,404.0469 290.875,404.875 Q291.7656,405.6875 293.3594,405.6875 Q294.2969,405.6875 294.9531,405.4375 Q295.3438,405.2813 295.7656,404.8438 Q296.0313,404.5781 296.1719,404.5 Q296.3281,404.4219 296.5313,404.4219 Q296.8594,404.4219 297.1094,404.6875 Q297.375,404.9375 297.375,405.2813 Q297.375,405.625 297.0313,406.0313 Q296.5313,406.6094 295.7344,406.9375 Q294.6563,407.3906 293.3594,407.3906 Q291.8438,407.3906 290.6406,406.7656 Q289.6563,406.2656 288.9688,405.2031 Q288.2813,404.125 288.2813,402.8438 L288.2813,401.6875 Q288.2813,400.3594 288.8906,399.2188 Q289.5156,398.0625 290.6094,397.4531 Q291.7031,396.8281 292.9375,396.8281 Q293.6719,396.8281 294.3125,397 Q294.9688,397.1563 295.5156,397.5156 Z " fill="#000000"/><text fill="#000000" font-family="sans-serif" font-size="14" lengthAdjust="spacing" textLength="30" x="313.25" y="406.4941">Data</text><line style="stroke:#181818;stroke-width:0.5;" x1="180" x2="444" y1="417.6406" y2="417.6406"/><rect fill="none" height="6" style="stroke:#C82930;stroke-width:1.0;" width="6" x="187" y="427.9609"/><text fill="#000000" font-family="sans-serif" font-size="14" lengthAdjust="spacing" textLength="51" x="199" y="434.3145">ano : int</text><rect fill="none" height="6" style="stroke:#C82930;stroke-width:1.0;" width="6" x="187" y="443.6016"/><text fill="#000000" font-family="sans-serif" font-size="14" lengthAdjust="spacing" textLength="53" x="199" y="449.9551">mes : int</text><rect fill="none" height="6" style="stroke:#C82930;stroke-width:1.0;" width="6" x="187" y="459.2422"/><text fill="#000000" font-family="sans-serif" font-size="14" lengthAdjust="spacing" textLength="46" x="199" y="465.5957">dia : int</text><line style="stroke:#181818;stroke-width:0.5;" x1="180" x2="444" y1="472.5625" y2="472.5625"/><ellipse cx="190" cy="485.8828" fill="#84BE84" rx="3" ry="3" style="stroke:#038048;stroke-width:1.0;"/><text fill="#000000" font-family="sans-serif" font-size="14" lengthAdjust="spacing" textLength="180" x="199" y="489.2363">toAnoMesDiaString() : String</text><ellipse cx="190" cy="501.5234" fill="#84BE84" rx="3" ry="3" style="stroke:#038048;stroke-width:1.0;"/><text fill="#000000" font-family="sans-serif" font-size="14" lengthAdjust="spacing" textLength="240" x="199" y="504.877">equals((Object outroObjeto) : boolean</text><ellipse cx="190" cy="517.1641" fill="#84BE84" rx="3" ry="3" style="stroke:#038048;stroke-width:1.0;"/><text fill="#000000" font-family="sans-serif" font-size="14" lengthAdjust="spacing" textLength="148" x="199" y="520.5176">diaDaSemana() : String</text><ellipse cx="190" cy="532.8047" fill="#84BE84" rx="3" ry="3" style="stroke:#038048;stroke-width:1.0;"/><text fill="#000000" font-family="sans-serif" font-size="14" lengthAdjust="spacing" textLength="215" x="199" y="536.1582">isMaior(Data outraData) : boolean</text><ellipse cx="190" cy="548.4453" fill="#84BE84" rx="3" ry="3" style="stroke:#038048;stroke-width:1.0;"/><text fill="#000000" font-family="sans-serif" font-size="14" lengthAdjust="spacing" textLength="193" x="199" y="551.7988">diferenca(Data outraData) : int</text><ellipse cx="190" cy="564.0859" fill="#84BE84" rx="3" ry="3" style="stroke:#038048;stroke-width:1.0;"/><text fill="#000000" font-family="sans-serif" font-size="14" lengthAdjust="spacing" textLength="238" x="199" y="567.4395">diferenca(int ano, int mes, int dia) : int</text><ellipse cx="190" cy="579.7266" fill="#84BE84" rx="3" ry="3" style="stroke:#038048;stroke-width:1.0;"/><text fill="#000000" font-family="sans-serif" font-size="14" lengthAdjust="spacing" textLength="203" x="199" y="583.0801">isAnoBissexto(int ano) : boolean</text><ellipse cx="190" cy="595.3672" fill="#84BE84" rx="3" ry="3" style="stroke:#038048;stroke-width:1.0;"/><text fill="#000000" font-family="sans-serif" font-size="14" lengthAdjust="spacing" textLength="112" x="199" y="598.7207">dataAtual() : Data</text><ellipse cx="190" cy="611.0078" fill="#84BE84" rx="3" ry="3" style="stroke:#038048;stroke-width:1.0;"/><text fill="#000000" font-family="sans-serif" font-size="14" lengthAdjust="spacing" textLength="100" x="199" y="614.3613">contaDias() : int</text></g><!--link Automovel to Pessoa--><g id="link_Automovel_Pessoa"><path codeLine="37" d="M155.96,138.7706 C146.99,160.7506 136.25,187.0406 127.04,209.6106 " fill="none" id="Automovel-to-Pessoa" style="stroke:#181818;stroke-width:1.0;"/><polygon fill="#181818" points="125.09,214.3706,132.19,207.545,126.9765,209.7402,124.7813,204.5266,125.09,214.3706" style="stroke:#181818;stroke-width:1.0;"/><text fill="#000000" font-family="sans-serif" font-size="13" lengthAdjust="spacing" textLength="30" x="143" y="181.4092">owns</text><text fill="#000000" font-family="sans-serif" font-size="13" lengthAdjust="spacing" textLength="20" x="106.4819" y="203.7986">1..*</text></g><!--link Automovel to Matricula--><g id="link_Automovel_Matricula"><path codeLine="39" d="M212.8,138.7706 C232.94,163.6106 257.54,193.9606 277.21,218.2206 " fill="none" id="Automovel-to-Matricula" style="stroke:#181818;stroke-width:1.0;"/><polygon fill="#181818" points="280.57,222.3706,277.9991,212.8632,277.417,218.4901,271.7902,217.908,280.57,222.3706" style="stroke:#181818;stroke-width:1.0;"/><text fill="#000000" font-family="sans-serif" font-size="13" lengthAdjust="spacing" textLength="21" x="248" y="181.4092">has</text><text fill="#000000" font-family="sans-serif" font-size="13" lengthAdjust="spacing" textLength="7" x="262.9918" y="211.8298">1</text></g><!--link Matricula to Data--><g id="link_Matricula_Data"><path codeLine="41" d="M312,301.8906 C312,323.5106 312,351.7706 312,380.2306 " fill="none" id="Matricula-to-Data" style="stroke:#181818;stroke-width:1.0;"/><polygon fill="#181818" points="312,385.5406,316,376.5406,312,380.5406,308,376.5406,312,385.5406" style="stroke:#181818;stroke-width:1.0;"/><text fill="#000000" font-family="sans-serif" font-size="13" lengthAdjust="spacing" textLength="21" x="313" y="352.4092">has</text><text fill="#000000" font-family="sans-serif" font-size="13" lengthAdjust="spacing" textLength="7" x="300.6305" y="374.9321">1</text></g><!--SRC=[RL9BJiCm4Dtd55Otf9IqOji5Kcct5OXoWMawj4QE9zYJWbHn60x0YYFqOepZ9eQgk_cyz-RDs5SxvjfF9vFQWEMcCkEIgabfmFjYes7heCgoPyq6rJmKrI8MLQ5c3LDr_DcZKS9H5R0xVfUDWInh-H50qZzaXRHT2MggLkoqtKgXTbGxZNpySfgayOZU4xH8WGGTAIwxEFliL2CkI5ggyA-YtiprNXifQSlPIE5R0yRd3-jNB5bHmuv2p3HCQls0mzdaNdK334-urPw3ouLaYHsoG0HBfwaYWhwFvOAz6wQPfILwEM3KpeTfJ6_sabk1hOaCWXMSI2vWXHLO-2-W_H8qkJnuQkaGedFo2pgq9Ln0HPS98NdOwoOqmb8naF49hBsiTA-znm-cZd0sKTHdBAkrPjlhZUIxM0QvWyyxBRbe_rkKAeexDRWTZwy7fzSM5BrRVm6a1ka91RK30QL20hNxnlul]--></g></svg>